<svg width="68" height="29" viewBox="0 0 68 29" fill="none" xmlns="http://www.w3.org/2000/svg">
<path d="M64.5021 3.45934C58.2059 4.84308 56.7368 9.11188 55.2817 12.6888L56.6039 13.1455L57.2685 11.5542C57.6043 11.6718 57.9541 11.7618 58.2059 11.7618C65.9013 11.7618 68 0 68 0C67.3004 1.38374 62.4034 1.5567 58.9055 2.24857C55.4076 2.94044 54.0084 5.88086 54.0084 7.26462C54.0084 8.64834 55.2327 9.85911 55.2327 9.85911C57.5063 3.45934 64.5021 3.45934 64.5021 3.45934Z" fill="#86BD24"/>
<path d="M8.90223 9.62075L3.35428 24.1953H0L6.98915 7.3803H9.13179L8.90223 9.62075ZM13.5447 24.1953L7.98396 9.62075L7.74163 7.3803H9.89704L16.9117 24.1953H13.5447ZM13.2768 17.959V20.2572H3.17572V17.959H13.2768ZM22.8423 24.1953H19.7686V10.4985C19.7686 9.56685 19.9599 8.78538 20.3425 8.15408C20.7336 7.51505 21.2906 7.03383 22.0132 6.71046C22.736 6.3794 23.5905 6.21387 24.5768 6.21387C24.8829 6.21387 25.1847 6.23312 25.4823 6.27162C25.7799 6.30243 26.069 6.35246 26.3496 6.42174L26.2731 8.56982C26.103 8.53132 25.916 8.50439 25.7119 8.48898C25.5163 8.47357 25.3038 8.46589 25.0742 8.46589C24.6066 8.46589 24.2027 8.54673 23.8626 8.70842C23.531 8.86238 23.2759 9.08951 23.0973 9.38979C22.9273 9.69007 22.8423 10.0596 22.8423 10.4985V24.1953ZM25.6864 11.6995V13.7321H17.6514V11.6995H25.6864ZM31.0048 14.1017V28.9996H27.9311V11.6995H30.7624L31.0048 14.1017ZM39.9964 17.8319V18.0745C39.9964 18.983 39.8774 19.826 39.6391 20.6036C39.4094 21.3736 39.0652 22.0472 38.6062 22.6247C38.1553 23.1944 37.5984 23.6371 36.9353 23.9528C36.2721 24.2685 35.5069 24.4263 34.6396 24.4263C33.7809 24.4263 33.0284 24.2838 32.3822 23.999C31.7445 23.7064 31.2046 23.2945 30.7624 22.7632C30.3203 22.232 29.9632 21.6084 29.6911 20.8923C29.4275 20.1686 29.2405 19.3756 29.1299 18.5133V17.5779C29.2405 16.6617 29.4275 15.8302 29.6911 15.0833C29.9632 14.3365 30.3203 13.6936 30.7624 13.1547C31.2046 12.6157 31.7445 12.2 32.3822 11.9074C33.0199 11.6148 33.7639 11.4686 34.6141 11.4686C35.4814 11.4686 36.2507 11.6226 36.9226 11.9305C37.5944 12.2308 38.1597 12.6619 38.6189 13.224C39.0779 13.7783 39.4225 14.4481 39.6518 15.2335C39.8814 16.0111 39.9964 16.8772 39.9964 17.8319ZM36.9226 18.0745V17.8319C36.9226 17.2545 36.8631 16.7194 36.7441 16.2267C36.6251 15.7262 36.4379 15.2873 36.1829 14.9101C35.9278 14.5328 35.6004 14.2403 35.2008 14.0324C34.8097 13.8168 34.3378 13.709 33.7851 13.709C33.241 13.709 32.7733 13.7937 32.3822 13.9631C31.9911 14.1248 31.6637 14.3519 31.4001 14.6445C31.1366 14.937 30.9325 15.2797 30.7879 15.6723C30.6434 16.0573 30.5414 16.4769 30.4819 16.9311V19.1716C30.5839 19.7259 30.7582 20.2341 31.0048 20.696C31.2513 21.158 31.5999 21.5275 32.0506 21.8047C32.5097 22.0742 33.0964 22.2089 33.8106 22.2089C34.3633 22.2089 34.8352 22.1011 35.2263 21.8856C35.6174 21.67 35.9363 21.3736 36.1829 20.9963C36.4379 20.6113 36.6251 20.1686 36.7441 19.6682C36.8631 19.1677 36.9226 18.6365 36.9226 18.0745ZM50.3907 21.6892V15.7301C50.3907 15.2835 50.3015 14.8985 50.123 14.5752C49.9445 14.2518 49.6724 14.0016 49.3067 13.8245C48.9494 13.6474 48.4988 13.5589 47.9547 13.5589C47.4529 13.5589 47.0194 13.6359 46.6537 13.7899C46.2881 13.9439 46.0033 14.1517 45.7994 14.4135C45.5952 14.6753 45.4932 14.9717 45.4932 15.3028H42.4321C42.4321 14.81 42.5641 14.3327 42.8275 13.8707C43.0913 13.4088 43.474 12.9969 43.9754 12.635C44.4771 12.2731 45.0767 11.9882 45.7736 11.7804C46.4709 11.5725 47.2534 11.4686 48.1205 11.4686C49.158 11.4686 50.0762 11.6264 50.8754 11.9421C51.6829 12.2577 52.3167 12.7351 52.7756 13.3741C53.2432 14.0054 53.4772 14.7984 53.4772 15.7532V21.3081C53.4772 21.8778 53.5197 22.3898 53.6046 22.8441C53.6982 23.2906 53.8299 23.6795 54 24.0105V24.1953H50.85C50.7052 23.895 50.5906 23.5139 50.5054 23.052C50.4288 22.5823 50.3907 22.1281 50.3907 21.6892ZM50.8369 16.5962L50.8627 18.317H48.6563C48.0863 18.317 47.585 18.367 47.1511 18.4671C46.7176 18.5595 46.3563 18.6981 46.0671 18.8829C45.778 19.0676 45.5614 19.2909 45.4167 19.5527C45.2723 19.8145 45.1997 20.1109 45.1997 20.4419C45.1997 20.773 45.285 21.0771 45.4551 21.3543C45.6249 21.6238 45.8716 21.8355 46.1948 21.9895C46.5264 22.1435 46.9258 22.2205 47.3934 22.2205C48.0229 22.2205 48.571 22.105 49.0386 21.874C49.515 21.6353 49.889 21.3466 50.1611 21.0078C50.4332 20.6614 50.5779 20.3342 50.5946 20.0262L51.5897 21.2619C51.4874 21.5776 51.3133 21.9163 51.0666 22.2782C50.8202 22.6401 50.497 22.9865 50.0972 23.3176C49.7062 23.641 49.2342 23.9066 48.6817 24.1145C48.1375 24.3223 47.5084 24.4263 46.7941 24.4263C45.893 24.4263 45.0894 24.2646 44.3835 23.9412C43.6779 23.6102 43.1254 23.1675 42.7256 22.6131C42.3262 22.0511 42.1263 21.4159 42.1263 20.7076C42.1263 20.0454 42.2623 19.4603 42.5344 18.9522C42.8148 18.4363 43.223 18.0051 43.7588 17.6587C44.3029 17.3122 44.9661 17.0505 45.7482 16.8734C46.5304 16.6886 47.4232 16.5962 48.4266 16.5962H50.8369Z" fill="black"/>
</svg>
