<svg width="195" height="82" viewBox="0 0 195 82" fill="none" xmlns="http://www.w3.org/2000/svg">
<path d="M185 9.73684C167 13.6316 162.8 25.6468 158.64 35.7147L162.42 37L164.32 32.5211C165.28 32.8521 166.28 33.1053 167 33.1053C189 33.1053 195 0 195 0C193 3.89474 179 4.38158 169 6.32895C159 8.27632 155 16.5526 155 20.4474C155 24.3421 158.5 27.75 158.5 27.75C165 9.73684 185 9.73684 185 9.73684Z" fill="#86BD24"/>
<path d="M25.1367 22.6328L9.84375 67H0.597656L19.8633 15.8125H25.7695L25.1367 22.6328ZM37.9336 67L22.6055 22.6328L21.9375 15.8125H27.8789L47.2148 67H37.9336ZM37.1953 48.0156V55.0117H9.35156V48.0156H37.1953ZM63.5625 67H55.0898V25.3047C55.0898 22.4687 55.6172 20.0898 56.6719 18.168C57.75 16.2227 59.2852 14.7578 61.2773 13.7734C63.2695 12.7656 65.625 12.2617 68.3438 12.2617C69.1875 12.2617 70.0195 12.3203 70.8398 12.4375C71.6602 12.5313 72.457 12.6836 73.2305 12.8945L73.0195 19.4336C72.5508 19.3164 72.0352 19.2344 71.4727 19.1875C70.9336 19.1406 70.3477 19.1172 69.7148 19.1172C68.4258 19.1172 67.3125 19.3633 66.375 19.8555C65.4609 20.3242 64.7578 21.0156 64.2656 21.9297C63.7969 22.8438 63.5625 23.9688 63.5625 25.3047V67ZM71.4023 28.9609V35.1484H49.2539V28.9609H71.4023ZM86.0625 36.2734V81.625H77.5898V28.9609H85.3945L86.0625 36.2734ZM110.848 47.6289V48.3672C110.848 51.1328 110.52 53.6992 109.863 56.0664C109.23 58.4102 108.281 60.4609 107.016 62.2188C105.773 63.9531 104.238 65.3008 102.41 66.2617C100.582 67.2227 98.4727 67.7031 96.082 67.7031C93.7148 67.7031 91.6406 67.2695 89.8594 66.4023C88.1016 65.5117 86.6133 64.2578 85.3945 62.6406C84.1758 61.0234 83.1914 59.125 82.4414 56.9453C81.7148 54.7422 81.1992 52.3281 80.8945 49.7031V46.8555C81.1992 44.0664 81.7148 41.5352 82.4414 39.2617C83.1914 36.9883 84.1758 35.0312 85.3945 33.3906C86.6133 31.75 88.1016 30.4844 89.8594 29.5938C91.6172 28.7031 93.668 28.2578 96.0117 28.2578C98.4023 28.2578 100.523 28.7266 102.375 29.6641C104.227 30.5781 105.785 31.8906 107.051 33.6016C108.316 35.2891 109.266 37.3281 109.898 39.7188C110.531 42.0859 110.848 44.7227 110.848 47.6289ZM102.375 48.3672V47.6289C102.375 45.8711 102.211 44.2422 101.883 42.7422C101.555 41.2188 101.039 39.8828 100.336 38.7344C99.6328 37.5859 98.7305 36.6953 97.6289 36.0625C96.5508 35.4062 95.25 35.0781 93.7266 35.0781C92.2266 35.0781 90.9375 35.3359 89.8594 35.8516C88.7812 36.3438 87.8789 37.0352 87.1523 37.9258C86.4258 38.8164 85.8633 39.8594 85.4648 41.0547C85.0664 42.2266 84.7852 43.5039 84.6211 44.8867V51.707C84.9023 53.3945 85.3828 54.9414 86.0625 56.3477C86.7422 57.7539 87.7031 58.8789 88.9453 59.7227C90.2109 60.543 91.8281 60.9531 93.7969 60.9531C95.3203 60.9531 96.6211 60.625 97.6992 59.9688C98.7773 59.3125 99.6562 58.4102 100.336 57.2617C101.039 56.0898 101.555 54.7422 101.883 53.2188C102.211 51.6953 102.375 50.0781 102.375 48.3672ZM139.5 59.3711V41.2305C139.5 39.8711 139.254 38.6992 138.762 37.7148C138.27 36.7305 137.52 35.9688 136.512 35.4297C135.527 34.8906 134.285 34.6211 132.785 34.6211C131.402 34.6211 130.207 34.8555 129.199 35.3242C128.191 35.793 127.406 36.4258 126.844 37.2227C126.281 38.0195 126 38.9219 126 39.9297H117.562C117.562 38.4297 117.926 36.9766 118.652 35.5703C119.379 34.1641 120.434 32.9102 121.816 31.8086C123.199 30.707 124.852 29.8398 126.773 29.207C128.695 28.5742 130.852 28.2578 133.242 28.2578C136.102 28.2578 138.633 28.7383 140.836 29.6992C143.062 30.6602 144.809 32.1133 146.074 34.0586C147.363 35.9805 148.008 38.3945 148.008 41.3008V58.2109C148.008 59.9453 148.125 61.5039 148.359 62.8867C148.617 64.2461 148.98 65.4297 149.449 66.4375V67H140.766C140.367 66.0859 140.051 64.9258 139.816 63.5195C139.605 62.0898 139.5 60.707 139.5 59.3711ZM140.73 43.8672L140.801 49.1055H134.719C133.148 49.1055 131.766 49.2578 130.57 49.5625C129.375 49.8438 128.379 50.2656 127.582 50.8281C126.785 51.3906 126.188 52.0703 125.789 52.8672C125.391 53.6641 125.191 54.5664 125.191 55.5742C125.191 56.582 125.426 57.5078 125.895 58.3516C126.363 59.1719 127.043 59.8164 127.934 60.2852C128.848 60.7539 129.949 60.9883 131.238 60.9883C132.973 60.9883 134.484 60.6367 135.773 59.9336C137.086 59.207 138.117 58.3281 138.867 57.2969C139.617 56.2422 140.016 55.2461 140.062 54.3086L142.805 58.0703C142.523 59.0312 142.043 60.0625 141.363 61.1641C140.684 62.2656 139.793 63.3203 138.691 64.3281C137.613 65.3125 136.312 66.1211 134.789 66.7539C133.289 67.3867 131.555 67.7031 129.586 67.7031C127.102 67.7031 124.887 67.2109 122.941 66.2266C120.996 65.2188 119.473 63.8711 118.371 62.1836C117.27 60.4727 116.719 58.5391 116.719 56.3828C116.719 54.3672 117.094 52.5859 117.844 51.0391C118.617 49.4688 119.742 48.1562 121.219 47.1016C122.719 46.0469 124.547 45.25 126.703 44.7109C128.859 44.1484 131.32 43.8672 134.086 43.8672H140.73Z" fill="black"/>
</svg>
