<svg width="52" height="76" viewBox="0 0 52 76" fill="none" xmlns="http://www.w3.org/2000/svg">
<path d="M25.9682 76.0002L4.73241 69.8959L0 14.936H52L47.2627 69.8875L25.9682 76.0002Z" fill="#264DE4"/>
<path d="M43.207 66.3878L47.2551 19.4292H26V71.3272L43.207 66.3878Z" fill="#2965F1"/>
<path d="M10.8496 39.8132L11.433 46.5538H26.0008V39.8132H10.8496Z" fill="#EBEBEB"/>
<path d="M9.67578 26.1704L10.2675 32.9111H25.9994V26.1704H9.67578Z" fill="#EBEBEB"/>
<path d="M25.9996 57.3189L25.971 57.3268L18.7211 55.2997L18.2576 49.9238H11.7227L12.6346 60.5076L25.9696 64.3405L25.9996 64.332V57.3189Z" fill="#EBEBEB"/>
<path d="M12.2383 0H20.1225V3.41408H15.5355V6.82817H20.1229V10.242H12.2383V0Z" fill="black"/>
<path d="M21.6994 0H29.5839V2.96876H24.9966V3.56247H29.5839V10.3907H21.6996V7.2731H26.2869V6.67939H21.6992V0H21.6994Z" fill="black"/>
<path d="M31.1611 0H39.0456V2.96876H34.4583V3.56247H39.0456V10.3907H31.1611V7.2731H35.7484V6.67939H31.1613V0H31.1611Z" fill="black"/>
<path d="M41.1087 39.8135L42.2838 26.1704H25.9768V32.911H35.1497L34.5573 39.8135H25.9768V46.5541H33.9929L33.2371 55.2962L25.9766 57.3253V64.338L39.3221 60.5083L39.42 59.3694L40.95 41.6235L41.1087 39.8135Z" fill="white"/>
</svg>
