<svg width="230" height="50" viewBox="0 0 230 50" fill="none" xmlns="http://www.w3.org/2000/svg">
<path d="M1.632 43V26.2H7.368C9.336 26.2 10.952 26.552 12.216 27.256C13.496 27.944 14.44 28.92 15.048 30.184C15.672 31.432 15.984 32.904 15.984 34.6C15.984 36.296 15.672 37.776 15.048 39.04C14.44 40.288 13.496 41.264 12.216 41.968C10.952 42.656 9.336 43 7.368 43H1.632ZM4.704 40.36H7.224C8.632 40.36 9.744 40.136 10.56 39.688C11.376 39.224 11.96 38.568 12.312 37.72C12.664 36.856 12.84 35.816 12.84 34.6C12.84 33.4 12.664 32.368 12.312 31.504C11.96 30.64 11.376 29.976 10.56 29.512C9.744 29.048 8.632 28.816 7.224 28.816H4.704V40.36ZM24.4065 43.288C23.2065 43.288 22.1425 43.032 21.2145 42.52C20.2865 42.008 19.5585 41.288 19.0305 40.36C18.5025 39.432 18.2385 38.36 18.2385 37.144C18.2385 35.912 18.4945 34.816 19.0065 33.856C19.5345 32.896 20.2545 32.152 21.1665 31.624C22.0945 31.08 23.1825 30.808 24.4305 30.808C25.5985 30.808 26.6305 31.064 27.5265 31.576C28.4225 32.088 29.1185 32.792 29.6145 33.688C30.1265 34.568 30.3825 35.552 30.3825 36.64C30.3825 36.816 30.3745 37 30.3585 37.192C30.3585 37.384 30.3505 37.584 30.3345 37.792H21.2865C21.3505 38.72 21.6705 39.448 22.2465 39.976C22.8385 40.504 23.5505 40.768 24.3825 40.768C25.0065 40.768 25.5265 40.632 25.9425 40.36C26.3745 40.072 26.6945 39.704 26.9025 39.256H30.0225C29.7985 40.008 29.4225 40.696 28.8945 41.32C28.3825 41.928 27.7425 42.408 26.9745 42.76C26.2225 43.112 25.3665 43.288 24.4065 43.288ZM24.4305 33.304C23.6785 33.304 23.0145 33.52 22.4385 33.952C21.8625 34.368 21.4945 35.008 21.3345 35.872H27.2625C27.2145 35.088 26.9265 34.464 26.3985 34C25.8705 33.536 25.2145 33.304 24.4305 33.304ZM23.5665 30.136V27.976L28.9905 25.048V27.544L23.5665 30.136ZM35.7135 43L31.3455 31.096H34.5615L37.5855 40.096L40.6095 31.096H43.8255L39.4335 43H35.7135ZM50.9612 43.288C49.7612 43.288 48.6972 43.032 47.7692 42.52C46.8412 42.008 46.1132 41.288 45.5852 40.36C45.0572 39.432 44.7932 38.36 44.7932 37.144C44.7932 35.912 45.0492 34.816 45.5612 33.856C46.0892 32.896 46.8092 32.152 47.7212 31.624C48.6492 31.08 49.7372 30.808 50.9852 30.808C52.1532 30.808 53.1852 31.064 54.0812 31.576C54.9772 32.088 55.6732 32.792 56.1692 33.688C56.6812 34.568 56.9372 35.552 56.9372 36.64C56.9372 36.816 56.9292 37 56.9132 37.192C56.9132 37.384 56.9052 37.584 56.8892 37.792H47.8412C47.9052 38.72 48.2252 39.448 48.8012 39.976C49.3932 40.504 50.1052 40.768 50.9372 40.768C51.5612 40.768 52.0812 40.632 52.4972 40.36C52.9292 40.072 53.2492 39.704 53.4572 39.256H56.5772C56.3532 40.008 55.9772 40.696 55.4492 41.32C54.9372 41.928 54.2972 42.408 53.5292 42.76C52.7772 43.112 51.9212 43.288 50.9612 43.288ZM50.9852 33.304C50.2332 33.304 49.5692 33.52 48.9932 33.952C48.4172 34.368 48.0492 35.008 47.8892 35.872H53.8172C53.7692 35.088 53.4812 34.464 52.9532 34C52.4252 33.536 51.7692 33.304 50.9852 33.304ZM59.5209 43V25.72H62.5929V43H59.5209ZM71.4439 43.288C70.2919 43.288 69.2519 43.024 68.3239 42.496C67.4119 41.968 66.6839 41.24 66.1399 40.312C65.6119 39.368 65.3479 38.28 65.3479 37.048C65.3479 35.816 65.6199 34.736 66.1639 33.808C66.7079 32.864 67.4359 32.128 68.3479 31.6C69.2759 31.072 70.3159 30.808 71.4679 30.808C72.6039 30.808 73.6279 31.072 74.5399 31.6C75.4679 32.128 76.1959 32.864 76.7239 33.808C77.2679 34.736 77.5399 35.816 77.5399 37.048C77.5399 38.28 77.2679 39.368 76.7239 40.312C76.1959 41.24 75.4679 41.968 74.5399 42.496C73.6119 43.024 72.5799 43.288 71.4439 43.288ZM71.4439 40.624C72.2439 40.624 72.9399 40.328 73.5319 39.736C74.1239 39.128 74.4199 38.232 74.4199 37.048C74.4199 35.864 74.1239 34.976 73.5319 34.384C72.9399 33.776 72.2519 33.472 71.4679 33.472C70.6519 33.472 69.9479 33.776 69.3559 34.384C68.7799 34.976 68.4919 35.864 68.4919 37.048C68.4919 38.232 68.7799 39.128 69.3559 39.736C69.9479 40.328 70.6439 40.624 71.4439 40.624ZM80.2866 48.28V31.096H83.0226L83.3586 32.8C83.7426 32.272 84.2466 31.808 84.8706 31.408C85.5106 31.008 86.3346 30.808 87.3426 30.808C88.4626 30.808 89.4626 31.08 90.3426 31.624C91.2226 32.168 91.9186 32.912 92.4306 33.856C92.9426 34.8 93.1986 35.872 93.1986 37.072C93.1986 38.272 92.9426 39.344 92.4306 40.288C91.9186 41.216 91.2226 41.952 90.3426 42.496C89.4626 43.024 88.4626 43.288 87.3426 43.288C86.4466 43.288 85.6626 43.12 84.9906 42.784C84.3186 42.448 83.7746 41.976 83.3586 41.368V48.28H80.2866ZM86.6946 40.6C87.6706 40.6 88.4786 40.272 89.1186 39.616C89.7586 38.96 90.0786 38.112 90.0786 37.072C90.0786 36.032 89.7586 35.176 89.1186 34.504C88.4786 33.832 87.6706 33.496 86.6946 33.496C85.7026 33.496 84.8866 33.832 84.2466 34.504C83.6226 35.16 83.3106 36.008 83.3106 37.048C83.3106 38.088 83.6226 38.944 84.2466 39.616C84.8866 40.272 85.7026 40.6 86.6946 40.6ZM95.9428 48.28V31.096H98.6788L99.0148 32.8C99.3988 32.272 99.9028 31.808 100.527 31.408C101.167 31.008 101.991 30.808 102.999 30.808C104.119 30.808 105.119 31.08 105.999 31.624C106.879 32.168 107.575 32.912 108.087 33.856C108.599 34.8 108.855 35.872 108.855 37.072C108.855 38.272 108.599 39.344 108.087 40.288C107.575 41.216 106.879 41.952 105.999 42.496C105.119 43.024 104.119 43.288 102.999 43.288C102.103 43.288 101.319 43.12 100.647 42.784C99.9748 42.448 99.4308 41.976 99.0148 41.368V48.28H95.9428ZM102.351 40.6C103.327 40.6 104.135 40.272 104.775 39.616C105.415 38.96 105.735 38.112 105.735 37.072C105.735 36.032 105.415 35.176 104.775 34.504C104.135 33.832 103.327 33.496 102.351 33.496C101.359 33.496 100.543 33.832 99.9028 34.504C99.2788 35.16 98.9668 36.008 98.9668 37.048C98.9668 38.088 99.2788 38.944 99.9028 39.616C100.543 40.272 101.359 40.6 102.351 40.6ZM117.383 43.288C116.183 43.288 115.119 43.032 114.191 42.52C113.263 42.008 112.535 41.288 112.007 40.36C111.479 39.432 111.215 38.36 111.215 37.144C111.215 35.912 111.471 34.816 111.983 33.856C112.511 32.896 113.231 32.152 114.143 31.624C115.071 31.08 116.159 30.808 117.407 30.808C118.575 30.808 119.607 31.064 120.503 31.576C121.399 32.088 122.095 32.792 122.591 33.688C123.103 34.568 123.359 35.552 123.359 36.64C123.359 36.816 123.351 37 123.335 37.192C123.335 37.384 123.327 37.584 123.311 37.792H114.263C114.327 38.72 114.647 39.448 115.223 39.976C115.815 40.504 116.527 40.768 117.359 40.768C117.983 40.768 118.503 40.632 118.919 40.36C119.351 40.072 119.671 39.704 119.879 39.256H122.999C122.775 40.008 122.399 40.696 121.871 41.32C121.359 41.928 120.719 42.408 119.951 42.76C119.199 43.112 118.343 43.288 117.383 43.288ZM117.407 33.304C116.655 33.304 115.991 33.52 115.415 33.952C114.839 34.368 114.471 35.008 114.311 35.872H120.239C120.191 35.088 119.903 34.464 119.375 34C118.847 33.536 118.191 33.304 117.407 33.304ZM130.407 43.288C128.919 43.288 127.767 42.824 126.951 41.896C126.151 40.968 125.751 39.608 125.751 37.816V31.096H128.799V37.528C128.799 38.552 129.007 39.336 129.423 39.88C129.839 40.424 130.495 40.696 131.391 40.696C132.239 40.696 132.935 40.392 133.479 39.784C134.039 39.176 134.319 38.328 134.319 37.24V31.096H137.391V43H134.679L134.439 40.984C134.071 41.688 133.535 42.248 132.831 42.664C132.143 43.08 131.335 43.288 130.407 43.288ZM140.544 43V31.096H143.28L143.568 33.328C144 32.56 144.584 31.952 145.32 31.504C146.072 31.04 146.952 30.808 147.96 30.808V34.048H147.096C146.424 34.048 145.824 34.152 145.296 34.36C144.768 34.568 144.352 34.928 144.048 35.44C143.76 35.952 143.616 36.664 143.616 37.576V43H140.544ZM158.107 43L154.627 31.096H157.675L159.739 39.664L162.139 31.096H165.547L167.947 39.664L170.035 31.096H173.083L169.579 43H166.387L163.843 34.096L161.299 43H158.107ZM180.383 43.288C179.183 43.288 178.119 43.032 177.191 42.52C176.263 42.008 175.535 41.288 175.007 40.36C174.479 39.432 174.215 38.36 174.215 37.144C174.215 35.912 174.471 34.816 174.983 33.856C175.511 32.896 176.231 32.152 177.143 31.624C178.071 31.08 179.159 30.808 180.407 30.808C181.575 30.808 182.607 31.064 183.503 31.576C184.399 32.088 185.095 32.792 185.591 33.688C186.103 34.568 186.359 35.552 186.359 36.64C186.359 36.816 186.351 37 186.335 37.192C186.335 37.384 186.327 37.584 186.311 37.792H177.263C177.327 38.72 177.647 39.448 178.223 39.976C178.815 40.504 179.527 40.768 180.359 40.768C180.983 40.768 181.503 40.632 181.919 40.36C182.351 40.072 182.671 39.704 182.879 39.256H185.999C185.775 40.008 185.399 40.696 184.871 41.32C184.359 41.928 183.719 42.408 182.951 42.76C182.199 43.112 181.343 43.288 180.383 43.288ZM180.407 33.304C179.655 33.304 178.991 33.52 178.415 33.952C177.839 34.368 177.471 35.008 177.311 35.872H183.239C183.191 35.088 182.903 34.464 182.375 34C181.847 33.536 181.191 33.304 180.407 33.304ZM195.999 43.288C195.103 43.288 194.319 43.12 193.647 42.784C192.975 42.448 192.431 41.976 192.015 41.368L191.679 43H188.943V25.72H192.015V32.8C192.399 32.272 192.903 31.808 193.527 31.408C194.167 31.008 194.991 30.808 195.999 30.808C197.119 30.808 198.119 31.08 198.999 31.624C199.879 32.168 200.575 32.912 201.087 33.856C201.599 34.8 201.855 35.872 201.855 37.072C201.855 38.272 201.599 39.344 201.087 40.288C200.575 41.216 199.879 41.952 198.999 42.496C198.119 43.024 197.119 43.288 195.999 43.288ZM195.351 40.6C196.327 40.6 197.135 40.272 197.775 39.616C198.415 38.96 198.735 38.112 198.735 37.072C198.735 36.032 198.415 35.176 197.775 34.504C197.135 33.832 196.327 33.496 195.351 33.496C194.359 33.496 193.543 33.832 192.903 34.504C192.279 35.16 191.967 36.008 191.967 37.048C191.967 38.088 192.279 38.944 192.903 39.616C193.543 40.272 194.359 40.6 195.351 40.6Z" fill="black"/>
<g clip-path="url(#clip0_135_46)">
<path fill-rule="evenodd" clip-rule="evenodd" d="M212.309 4.57153C206.064 4.57153 201 10.1594 201 17.0522C201 22.5661 204.24 27.2439 208.735 28.8931C209.301 29.0086 209.507 28.6243 209.507 28.2925C209.507 27.9968 209.497 27.2125 209.492 26.1699C206.346 26.9248 205.682 24.4966 205.682 24.4966C205.167 23.055 204.426 22.6717 204.426 22.6717C203.399 21.8979 204.504 21.913 204.504 21.913C205.639 22.0016 206.236 23.1987 206.236 23.1987C207.245 25.1059 208.884 24.5539 209.528 24.2365C209.63 23.4285 209.923 22.8797 210.246 22.567C207.735 22.2522 205.095 21.1814 205.095 16.3994C205.095 15.0365 205.535 13.9223 206.258 13.0496C206.143 12.7354 205.754 11.4666 206.369 9.74753C206.369 9.74753 207.319 9.41217 209.48 11.0279C210.382 10.7498 211.349 10.6109 212.311 10.6067C213.272 10.6112 214.24 10.7498 215.142 11.0279C217.302 9.41217 218.25 9.74753 218.25 9.74753C218.867 11.4666 218.479 12.7354 218.363 13.0496C219.088 13.9223 219.525 15.0365 219.525 16.3994C219.525 21.1926 216.881 22.2486 214.361 22.5565C214.767 22.9421 215.129 23.7053 215.129 24.8698C215.129 26.5373 215.115 27.8829 215.115 28.2922C215.115 28.6266 215.318 29.0154 215.893 28.8915C220.382 27.2387 223.62 22.5645 223.62 17.0522C223.62 10.1594 218.556 4.57153 212.309 4.57153Z" fill="black"/>
</g>
<defs>
<clipPath id="clip0_135_46">
<rect width="46.6559" height="35" fill="white" transform="translate(183)"/>
</clipPath>
</defs>
</svg>
