<svg width="26" height="28" viewBox="0 0 26 28" fill="none" xmlns="http://www.w3.org/2000/svg">
<g clip-path="url(#clip0_1_462)">
<path d="M4.74744 0C2.11757 0 0 2.28046 0 5.11263V22.8874C0 25.7196 2.11757 28 4.74744 28H13.6931V17.0538H11.0053V13.1128H13.6931V9.74576C13.6931 7.10046 15.2811 4.67163 18.9394 4.67163C20.4206 4.67163 21.5158 4.82476 21.5158 4.82476L21.4297 8.50503C21.4297 8.50503 20.3127 8.49366 19.0938 8.49366C17.7745 8.49366 17.563 9.14824 17.563 10.2349V13.1128H21.5345L21.3614 17.0538H17.563V28.0001H21.2526C23.8824 28.0001 26 25.7196 26 22.8874V5.11266C26 2.28049 23.8824 2.8e-05 21.2526 2.8e-05H4.74742L4.74744 0Z" fill="#3359BB"/>
</g>
<defs>
<clipPath id="clip0_1_462">
<rect width="26" height="28" fill="white"/>
</clipPath>
</defs>
</svg>
