<svg width="14" height="13" viewBox="0 0 14 13" fill="none" xmlns="http://www.w3.org/2000/svg">
<path fill-rule="evenodd" clip-rule="evenodd" d="M6.66861 0C3.08006 0 0.170654 2.98403 0.170654 6.66494C0.170654 9.6095 2.03217 12.1075 4.61465 12.9883C4.9399 13.05 5.0582 12.8447 5.0582 12.6675C5.0582 12.5096 5.05254 12.0908 5.04971 11.534C3.24201 11.9372 2.86061 10.6405 2.86061 10.6405C2.56503 9.87061 2.13897 9.66589 2.13897 9.66589C1.54896 9.25268 2.18379 9.26072 2.18379 9.26072C2.83595 9.30805 3.1792 9.94734 3.1792 9.94734C3.75871 10.9658 4.7003 10.671 5.07037 10.5015C5.12919 10.07 5.29747 9.77697 5.48293 9.61001C4.04014 9.44186 2.5232 8.87007 2.5232 6.31633C2.5232 5.58852 2.7763 4.99349 3.19186 4.52748C3.12538 4.35967 2.90194 3.68211 3.25568 2.7641C3.25568 2.7641 3.8012 2.58501 5.04287 3.44782C5.56091 3.29932 6.11693 3.22515 6.66961 3.22293C7.22147 3.22532 7.77766 3.29932 8.29635 3.44782C9.53719 2.58501 10.0819 2.7641 10.0819 2.7641C10.4365 3.68211 10.2132 4.35967 10.1465 4.52748C10.5631 4.99349 10.8144 5.58852 10.8144 6.31633C10.8144 8.87605 9.29526 9.43998 7.84764 9.60437C8.08058 9.81029 8.28852 10.2179 8.28852 10.8397C8.28852 11.7302 8.28069 12.4488 8.28069 12.6674C8.28069 12.8459 8.39749 13.0536 8.72741 12.9874C11.3071 12.1048 13.1672 9.60864 13.1672 6.66494C13.1672 2.98403 10.2578 0 6.66861 0Z" fill="white"/>
</svg>
