<svg width="52" height="76" viewBox="0 0 52 76" fill="none" xmlns="http://www.w3.org/2000/svg">
<path d="M52 14.9358L47.2627 69.8872L25.9682 75.9999L4.73241 69.8957L0 14.9358H52Z" fill="#E44D26"/>
<path d="M26 71.3276L43.207 66.3881L47.2552 19.4294H26V71.3276Z" fill="#F16529"/>
<path d="M16.7912 32.9108H26.0004V26.1702H9.67676L9.83249 27.9785L11.4326 46.5539H26.0004V39.8133H17.3862L16.7912 32.9108Z" fill="#EBEBEB"/>
<path d="M18.2576 49.9243H11.7227L12.6346 60.5081L25.9696 64.3409L25.9996 64.3325V57.3194L25.971 57.3272L18.7211 55.3002L18.2576 49.9243Z" fill="#EBEBEB"/>
<path d="M4.83789 0H8.1461V3.38432H11.1724V0H14.4808V10.2486H11.1726V6.81677H8.14631V10.2486H4.83809V0H4.83789Z" fill="black"/>
<path d="M18.8309 3.39868H15.9189V0H25.0535V3.39868H22.1397V10.2486H18.8315V3.39868H18.8313H18.8309Z" fill="black"/>
<path d="M26.5039 0H29.9534L32.0753 3.60108L34.1952 0H37.6461V10.2486H34.3513V5.16882L32.0753 8.81275H32.0182L29.7408 5.16882V10.2486H26.5039V0Z" fill="black"/>
<path d="M39.2922 0H42.6014V6.86109H47.2537V10.2486H39.292V0H39.2922Z" fill="black"/>
<path d="M25.9777 46.5541H33.9939L33.2381 55.2962L25.9775 57.3253V64.338L39.3231 60.5083L39.421 59.3694L40.951 41.6235L41.1097 39.8135H25.9777V46.5541Z" fill="white"/>
<path d="M25.9775 32.8943V32.9108H41.7019L41.8323 31.3958L42.1291 27.9785L42.2846 26.1702H25.9775V32.8945V32.8943Z" fill="white"/>
</svg>
