<svg width="59" height="63" viewBox="0 0 59 63" fill="none" xmlns="http://www.w3.org/2000/svg">
<path d="M37.2774 28.6933C32.7985 31.178 28.3171 33.6581 23.8423 36.1503C21.2254 37.6083 18.6366 39.1159 16.0062 40.5495C10.7054 43.4384 4.40762 41.7451 1.40212 36.6566C-1.46622 31.8009 0.182257 25.5056 5.28719 22.5958C17.769 15.4822 30.283 8.42036 42.8422 1.43714C46.694 -0.704092 50.6902 -0.434726 54.2521 2.12552C58.0115 4.8278 59.2423 8.63038 58.398 13.0879C57.8743 14.1668 57.5616 15.4315 56.7771 16.2812C55.5021 17.6635 54.0526 18.987 52.439 19.959C47.4452 22.9656 42.3393 25.7952 37.2774 28.6933" fill="#E94436"/>
<path d="M32.1421 31.4803C36.5856 34.0248 41.0261 36.5749 45.4738 39.1124C48.0751 40.5967 50.7065 42.0318 53.2933 43.5389C58.5063 46.5775 60.1537 52.7491 57.143 57.8346C54.27 62.6882 47.8626 64.4424 42.7291 61.5798C30.1787 54.5819 17.6585 47.5317 5.18556 40.4029C1.36024 38.2165 -0.398899 34.7026 0.0910207 30.4105C0.607956 25.88 3.36512 22.9382 7.74115 21.423C8.95945 21.3271 10.2375 20.9588 11.3836 21.1972C13.2472 21.5848 15.1461 22.1484 16.8148 23.027C21.9784 25.746 27.0408 28.6487 32.1421 31.4803" fill="#35495E"/>
</svg>
