<svg width="34" height="34" viewBox="0 0 34 34" fill="none" xmlns="http://www.w3.org/2000/svg">
<path d="M17.0799 0C10.1961 0 8.18283 0.00712659 7.79149 0.0397053C6.37881 0.157549 5.49975 0.380764 4.54207 0.859264C3.80402 1.22705 3.22196 1.65337 2.6475 2.25099C1.6013 3.34085 0.967246 4.68166 0.737717 6.27547C0.626123 7.04922 0.593659 7.20702 0.587065 11.1592C0.584528 12.4766 0.587065 14.2104 0.587065 16.536C0.587065 23.4386 0.594673 25.457 0.627644 25.8489C0.741775 27.2284 0.957355 28.0963 1.41388 29.0457C2.28634 30.863 3.95265 32.2272 5.91569 32.7363C6.5954 32.9119 7.34613 33.0086 8.30989 33.0544C8.71823 33.0722 12.8802 33.085 17.0447 33.085C21.2092 33.085 25.3737 33.0799 25.7719 33.0595C26.8878 33.0068 27.5358 32.9195 28.2523 32.7337C29.2257 32.4832 30.1328 32.0225 30.9103 31.3838C31.6879 30.745 32.3171 29.9436 32.7541 29.0355C33.2018 28.1091 33.4287 27.2081 33.5315 25.9006C33.5538 25.6155 33.5632 21.0705 33.5632 16.5317C33.5632 11.992 33.553 7.45543 33.5307 7.17037C33.4267 5.84177 33.1997 4.9484 32.7376 4.00413C32.3585 3.23115 31.9374 2.65389 31.3262 2.06366C30.2356 1.01808 28.9016 0.381782 27.3116 0.151695C26.5414 0.0399598 26.3879 0.00687207 22.4466 0H17.0799Z" fill="url(#paint0_radial_90_2009)"/>
<path d="M17.0799 0C10.1961 0 8.18283 0.00712659 7.79149 0.0397053C6.37881 0.157549 5.49975 0.380764 4.54207 0.859264C3.80402 1.22705 3.22196 1.65337 2.6475 2.25099C1.6013 3.34085 0.967246 4.68166 0.737717 6.27547C0.626123 7.04922 0.593659 7.20702 0.587065 11.1592C0.584528 12.4766 0.587065 14.2104 0.587065 16.536C0.587065 23.4386 0.594673 25.457 0.627644 25.8489C0.741775 27.2284 0.957355 28.0963 1.41388 29.0457C2.28634 30.863 3.95265 32.2272 5.91569 32.7363C6.5954 32.9119 7.34613 33.0086 8.30989 33.0544C8.71823 33.0722 12.8802 33.085 17.0447 33.085C21.2092 33.085 25.3737 33.0799 25.7719 33.0595C26.8878 33.0068 27.5358 32.9195 28.2523 32.7337C29.2257 32.4832 30.1328 32.0225 30.9103 31.3838C31.6879 30.745 32.3171 29.9436 32.7541 29.0355C33.2018 28.1091 33.4287 27.2081 33.5315 25.9006C33.5538 25.6155 33.5632 21.0705 33.5632 16.5317C33.5632 11.992 33.553 7.45543 33.5307 7.17037C33.4267 5.84177 33.1997 4.9484 32.7376 4.00413C32.3585 3.23115 31.9374 2.65389 31.3262 2.06366C30.2356 1.01808 28.9016 0.381782 27.3116 0.151695C26.5414 0.0399598 26.3879 0.00687207 22.4466 0H17.0799Z" fill="url(#paint1_radial_90_2009)"/>
<path d="M17.0721 4.32666C13.7659 4.32666 13.351 4.34117 12.0524 4.40047C10.7564 4.46003 9.87178 4.66594 9.09772 4.96805C8.29703 5.2801 7.61783 5.69751 6.94116 6.37683C6.26398 7.05589 5.84804 7.7375 5.53608 8.54077C5.23427 9.31782 5.02884 10.2058 4.9705 11.5059C4.91268 12.8091 4.89746 13.2257 4.89746 16.5437C4.89746 19.8616 4.91217 20.2767 4.97101 21.5799C5.03061 22.8805 5.23579 23.7683 5.53659 24.5451C5.84779 25.3486 6.26373 26.0302 6.94065 26.7093C7.61706 27.3888 8.29627 27.8073 9.09645 28.1193C9.87101 28.4214 10.7559 28.6273 12.0517 28.6869C13.3502 28.7462 13.7649 28.7607 17.0709 28.7607C20.3774 28.7607 20.791 28.7462 22.0896 28.6869C23.3856 28.6273 24.2712 28.4214 25.0458 28.1193C25.8462 27.8073 26.5244 27.3888 27.2008 26.7093C27.878 26.0302 28.294 25.3486 28.6059 24.5453C28.9052 23.7683 29.1106 22.8802 29.1715 21.5801C29.2298 20.277 29.245 19.8616 29.245 16.5437C29.245 13.2257 29.2298 12.8093 29.1715 11.5062C29.1106 10.2056 28.9052 9.31782 28.6059 8.54102C28.294 7.7375 27.878 7.05589 27.2008 6.37683C26.5237 5.69726 25.8465 5.27984 25.045 4.96805C24.269 4.66594 23.3838 4.46003 22.0878 4.40047C20.7892 4.34117 20.3758 4.32666 17.0686 4.32666H17.0721ZM15.98 6.52827C16.3042 6.52776 16.6658 6.52827 17.0721 6.52827C20.3226 6.52827 20.7078 6.53998 21.9914 6.59852C23.1784 6.65298 23.8226 6.85202 24.2517 7.01924C24.8198 7.24067 25.2249 7.50538 25.6507 7.93297C26.0768 8.36057 26.3406 8.7678 26.5617 9.33793C26.7283 9.76807 26.9269 10.4146 26.981 11.6057C27.0393 12.8936 27.052 13.2805 27.052 16.5409C27.052 19.8013 27.0393 20.1882 26.981 21.476C26.9267 22.6672 26.7283 23.3137 26.5617 23.7438C26.3411 24.314 26.0768 24.7199 25.6507 25.1473C25.2246 25.5749 24.8201 25.8396 24.2517 26.061C23.8231 26.229 23.1784 26.4275 21.9914 26.482C20.7081 26.5405 20.3226 26.5532 17.0721 26.5532C13.8215 26.5532 13.4362 26.5405 12.1529 26.482C10.9659 26.427 10.3217 26.228 9.89232 26.0607C9.3242 25.8393 8.91841 25.5746 8.49232 25.147C8.06623 24.7194 7.80246 24.3132 7.5813 23.7428C7.41467 23.3127 7.21609 22.6662 7.16206 21.475C7.10373 20.1871 7.09206 19.8003 7.09206 16.5378C7.09206 13.2754 7.10373 12.8905 7.16206 11.6027C7.21634 10.4115 7.41467 9.76501 7.5813 9.33436C7.80196 8.76424 8.06623 8.357 8.49232 7.92941C8.91841 7.50181 9.3242 7.23711 9.89232 7.01517C10.3214 6.84718 10.9659 6.64866 12.1529 6.59394C13.2759 6.54303 13.7111 6.52776 15.98 6.52521V6.52827ZM23.5705 8.5568C23.2815 8.5568 22.9991 8.6428 22.7588 8.80391C22.5186 8.96502 22.3313 9.19402 22.2208 9.46193C22.1102 9.72985 22.0813 10.0246 22.1377 10.309C22.1941 10.5934 22.3333 10.8547 22.5377 11.0597C22.742 11.2647 23.0024 11.4043 23.2858 11.4608C23.5692 11.5173 23.863 11.4882 24.1299 11.3771C24.3968 11.2661 24.6249 11.0781 24.7854 10.837C24.9459 10.5958 25.0315 10.3123 25.0313 10.0223C25.0313 9.21296 24.377 8.55629 23.5705 8.55629V8.5568ZM17.0721 10.2697C13.6196 10.2697 10.8203 13.0789 10.8203 16.5437C10.8203 20.0085 13.6196 22.8163 17.0721 22.8163C20.5247 22.8163 23.3232 20.0085 23.3232 16.5437C23.3232 13.0789 20.5245 10.2697 17.0719 10.2697H17.0721ZM17.0721 12.4713C19.3132 12.4713 21.1301 14.2945 21.1301 16.5437C21.1301 18.7926 19.3132 20.616 17.0721 20.616C14.8309 20.616 13.0142 18.7926 13.0142 16.5437C13.0142 14.2945 14.8309 12.4713 17.0721 12.4713Z" fill="white"/>
<defs>
<radialGradient id="paint0_radial_90_2009" cx="0" cy="0" r="1" gradientUnits="userSpaceOnUse" gradientTransform="translate(9.34556 35.6332) rotate(-90) scale(32.7896 30.3976)">
<stop stop-color="#FFDD55"/>
<stop offset="0.1" stop-color="#FFDD55"/>
<stop offset="0.5" stop-color="#FF543E"/>
<stop offset="1" stop-color="#C837AB"/>
</radialGradient>
<radialGradient id="paint1_radial_90_2009" cx="0" cy="0" r="1" gradientUnits="userSpaceOnUse" gradientTransform="translate(-4.93792 2.38338) rotate(78.7166) scale(14.6553 60.228)">
<stop stop-color="#3771C8"/>
<stop offset="0.128" stop-color="#3771C8"/>
<stop offset="1" stop-color="#6600FF" stop-opacity="0"/>
</radialGradient>
</defs>
</svg>
