<svg width="39" height="39" viewBox="0 0 39 39"  xmlns="http://www.w3.org/2000/svg">
<path fill="white" d="M36.1113 0H2.87896C1.28971 0 0 1.25937 0 2.81017V36.186C0 37.739 1.28971 39 2.87896 39H36.1113C37.7016 39 39 37.739 39 36.186V2.81017C39 1.25937 37.7016 0 36.1113 0ZM11.5667 33.2334H5.77958V14.6223H11.5667V33.2334ZM8.67317 12.0775C8.23267 12.0775 7.7965 11.9907 7.38956 11.8221C6.98262 11.6535 6.61291 11.4063 6.30153 11.0947C5.99015 10.7832 5.74323 10.4133 5.57485 10.0062C5.40648 9.59918 5.31997 9.16295 5.32025 8.72246C5.32025 7.83328 5.67347 6.98052 6.30222 6.35178C6.93096 5.72304 7.78372 5.36981 8.6729 5.36981C9.56207 5.36981 10.4148 5.72304 11.0436 6.35178C11.6723 6.98052 12.0255 7.83328 12.0255 8.72246C12.0255 9.61181 11.6724 10.4648 11.0438 11.0939C10.4152 11.723 9.56252 12.0768 8.67317 12.0775ZM33.2312 33.2334H27.4533V24.1833C27.4533 22.0242 27.411 19.2481 24.4465 19.2481C21.4359 19.2481 20.9771 21.5995 20.9771 24.0267V33.234H15.1948V14.6223H20.7442V17.1638H20.8233C21.5957 15.7013 23.4829 14.1581 26.2974 14.1581C32.1506 14.1581 33.2318 18.0115 33.2318 23.0246L33.2312 33.2334Z" fill="black"/>
</svg>
