<svg width="55" height="44" viewBox="0 0 55 44" fill="none" xmlns="http://www.w3.org/2000/svg">
<path d="M3.18998 43.9982C3.02251 43.9977 2.86115 43.9422 2.73681 43.8424C2.61247 43.7426 2.53389 43.6055 2.51613 43.4573V43.4555L0.00206071 20.7808L0 20.724C0 20.3903 0.302924 20.1208 0.677973 20.1208H17.6438V44L3.18998 43.9982ZM10.114 38.0123V38.0142C10.114 38.4859 10.2712 38.9471 10.5658 39.3393C10.8604 39.7315 11.2791 40.0372 11.769 40.2178C12.2589 40.3983 12.7979 40.4455 13.318 40.3535C13.838 40.2615 14.3157 40.0343 14.6907 39.7007C15.0656 39.3672 15.321 38.9422 15.4244 38.4795C15.5279 38.0168 15.4748 37.5372 15.2718 37.1014C15.0689 36.6656 14.7253 36.2931 14.2844 36.031C13.8435 35.7689 13.3252 35.629 12.7949 35.629H12.7908C11.3092 35.629 10.1098 36.696 10.1078 38.0142L10.114 38.0123ZM11.1031 23.3457C11.1031 23.6775 11.406 23.947 11.7811 23.947H13.3555C13.5347 23.947 13.7066 23.8836 13.8334 23.7709C13.9602 23.6581 14.0314 23.5051 14.0314 23.3457C14.0314 23.1862 13.9602 23.0332 13.8334 22.9205C13.7066 22.8077 13.5347 22.7443 13.3555 22.7443H11.7687C11.5889 22.7443 11.4165 22.8079 11.2893 22.921C11.1622 23.0341 11.0907 23.1875 11.0907 23.3475V23.353L11.1031 23.3457ZM3.66394 23.3457C3.66394 23.6775 3.96687 23.947 4.33985 23.947H9.50193C9.68119 23.947 9.85311 23.8836 9.97987 23.7709C10.1066 23.6581 10.1778 23.5051 10.1778 23.3457C10.1778 23.1862 10.1066 23.0332 9.97987 22.9205C9.85311 22.8077 9.68119 22.7443 9.50193 22.7443H4.32749C4.14823 22.7443 3.97631 22.8077 3.84955 22.9205C3.72279 23.0332 3.65158 23.1862 3.65158 23.3457V23.3512L3.66394 23.3457ZM23.8589 40.557C23.4957 40.4479 23.1527 40.2916 22.8409 40.0932L22.8533 40.1005L22.6472 39.985C22.1672 39.7171 21.6931 39.4408 21.2253 39.1563L21.0172 39.0262C20.7452 38.852 20.6174 38.775 20.4773 38.7823C19.9827 38.7915 19.4881 38.7952 18.9936 38.8007V22.0165L18.9668 20.6048C19.8961 20.0787 20.7534 19.5782 21.011 19.3875C21.3613 18.7605 21.7075 18.2362 22.0908 17.7338L22.0558 17.7833C22.2309 17.5395 22.4061 17.2975 22.5668 17.0573L26.1195 11.7517C26.2843 11.5023 26.4636 11.253 26.6429 11.0037C26.9417 10.6077 27.2591 10.1347 27.5496 9.647L27.5991 9.55717C27.7619 9.26108 27.8187 8.92771 27.7619 8.602L27.7639 8.61117L27.7516 2.89117C27.8814 2.05883 28.4089 1.35483 29.1529 0.925833L29.1652 0.9185C29.8284 0.38706 30.67 0.0648869 31.5598 0.00183333H31.5742L31.704 0C32.4067 0 33.0703 0.1485 33.6596 0.410667L33.6349 0.399667C34.0285 0.568333 34.3644 0.748 34.6797 0.949667L34.6591 0.936833L34.8775 1.06517C35.3741 1.298 35.7451 1.69033 35.9099 2.16517L35.914 2.178C36.2994 3.454 36.6518 4.6145 36.9794 5.77867L37.1154 6.2535C37.3236 6.87683 37.5028 7.63033 37.6182 8.40217L37.6286 8.47917C37.2762 11.3648 36.5982 13.9975 35.6173 16.5055L35.7038 16.2525L51.5569 16.2323H51.6146C52.0948 16.2324 52.5696 16.3233 53.0073 16.4991C53.445 16.6749 53.8357 16.9316 54.1534 17.252C54.4711 17.5724 54.7085 17.9493 54.8499 18.3577C54.9913 18.766 55.0335 19.1964 54.9735 19.6203L54.9756 19.6057C55.02 20.2462 54.8728 20.8857 54.5493 21.4592C54.2257 22.0327 53.7371 22.5198 53.1333 22.8708L53.1168 22.88C53.6951 23.6322 53.9657 24.5383 53.8834 25.4467V25.4338C53.9556 26.1537 53.7672 26.8752 53.3456 27.493C52.9241 28.1108 52.2915 28.5925 51.5404 28.8677L51.5157 28.875C51.9766 29.6061 52.1906 30.44 52.1318 31.2767V31.2657C52.1767 31.8924 52.0307 32.5182 51.7094 33.0774C51.3881 33.6365 50.9033 34.1082 50.306 34.4428L50.2895 34.452C50.7104 35.2906 50.8699 36.2145 50.7511 37.1268L50.7532 37.103V37.4477C50.7237 37.8992 50.592 38.3408 50.3662 38.7461C50.1403 39.1513 49.8249 39.5118 49.4387 39.806C49.0526 40.1003 48.6037 40.3222 48.1189 40.4585C47.6341 40.5947 47.1234 40.6426 46.6174 40.5992L46.6318 40.601H37.5049L37.474 40.6028L37.441 40.601H37.4431H25.2643C25.1592 40.601 25.05 40.601 24.9346 40.6157C24.7945 40.623 24.6461 40.634 24.4936 40.634H24.4627C24.2545 40.6342 24.0473 40.6095 23.8465 40.5607L23.863 40.5643L23.8589 40.557ZM11.4637 38.0142C11.4639 37.86 11.4981 37.7073 11.5646 37.5649C11.631 37.4225 11.7284 37.2931 11.851 37.1841C11.9737 37.0752 12.1193 36.9888 12.2795 36.9299C12.4397 36.871 12.6113 36.8407 12.7846 36.8408C12.958 36.841 13.1296 36.8714 13.2897 36.9306C13.4497 36.9897 13.5952 37.0763 13.7176 37.1854C13.8401 37.2945 13.9372 37.4241 14.0034 37.5666C14.0696 37.7091 14.1036 37.8618 14.1035 38.016C14.1032 38.3274 13.9639 38.626 13.7162 38.8461C13.4685 39.0661 13.1326 39.1896 12.7826 39.1893C12.4325 39.1891 12.0969 39.0651 11.8496 38.8448C11.6022 38.6244 11.4635 38.3256 11.4637 38.0142Z" fill="#5073C5"/>
</svg>
