<svg width="82" height="101" viewBox="0 0 82 101" fill="none" xmlns="http://www.w3.org/2000/svg">
<path d="M49.7689 12.6472C49.7689 12.6472 65.6999 23.8645 69.8691 41.6847C73.6258 57.7816 70.6174 65.4639 70.6174 65.4639C72.5386 68.0422 74.0524 71.0393 75.0812 74.3014C76.1146 76.3973 76.7219 78.7696 76.8512 81.2166C76.9806 83.6636 76.6283 86.1128 75.8244 88.3562C75.8244 88.3562 75.5681 81.7912 67.6244 80.4308C60.3443 79.1683 57.6973 87.8985 43.7931 87.4756C36.0892 87.2948 28.5381 84.7956 21.7982 80.1959C15.0584 75.5962 9.33425 69.0356 5.125 61.0862C11.9182 65.6501 20.8178 72.7359 31.9006 71.647C42.9834 70.5581 45.2973 66.3634 45.2973 66.3634C32.8397 54.2212 21.8128 40.0052 12.5332 24.1233C21.2457 33.1029 42.8271 50.9735 42.3248 50.519C34.4308 41.0183 27.2083 30.7063 20.7358 19.6951C20.7358 19.6951 53.1155 52.4854 55.7216 52.2771C56.7927 49.5595 62.3302 35.4921 49.7663 12.644L49.7689 12.6472Z" fill="url(#paint0_linear_501_143)"/>
<defs>
<linearGradient id="paint0_linear_501_143" x1="42.1275" y1="42.9472" x2="40.0738" y2="88.3625" gradientUnits="userSpaceOnUse">
<stop stop-color="#F88535"/>
<stop offset="1" stop-color="#FD2221"/>
</linearGradient>
</defs>
</svg>
