<svg width="30" height="32" viewBox="0 0 30 32" fill="none" xmlns="http://www.w3.org/2000/svg">
<path d="M18.7789 14.5744C16.5226 15.8364 14.265 17.0962 12.0108 18.3621C10.6925 19.1026 9.38837 19.8684 8.06329 20.5966C5.39296 22.064 2.22038 21.2039 0.706333 18.6192C-0.738624 16.1529 0.091814 12.9552 2.66348 11.4772C8.9513 7.86398 15.2554 4.27701 21.5822 0.729975C23.5226 -0.357634 25.5357 -0.220813 27.3301 1.07963C29.2239 2.45222 29.8439 4.38368 29.4186 6.6478C29.1548 7.19585 28.9972 7.83822 28.602 8.26981C27.9598 8.97195 27.2296 9.6442 26.4167 10.1379C23.901 11.6651 21.3288 13.1023 18.7789 14.5744" fill="#E94436"/>
<path d="M16.1923 15.99C18.4308 17.2824 20.6678 18.5777 22.9083 19.8666C24.2188 20.6205 25.5444 21.3494 26.8475 22.115C29.4736 23.6584 30.3035 26.7932 28.7868 29.3763C27.3395 31.8416 24.1117 32.7326 21.5257 31.2786C15.2033 27.7241 8.8961 24.1431 2.61273 20.5221C0.685683 19.4115 -0.200502 17.6267 0.0463005 15.4466C0.306712 13.1454 1.69566 11.6511 3.90013 10.8815C4.51386 10.8328 5.15769 10.6457 5.73505 10.7668C6.67384 10.9637 7.63043 11.25 8.47107 11.6962C11.0723 13.0773 13.6225 14.5517 16.1923 15.99" fill="#394B5F"/>
</svg>
