<svg width="81" height="92" viewBox="0 0 81 92" fill="none" xmlns="http://www.w3.org/2000/svg">
<path d="M29.7565 50.1545C39.3847 44.4237 48.9873 38.6463 58.6484 32.9756C67.8185 27.5908 78.6069 32.5563 80.6864 43.034C81.8895 49.0952 79.2782 55.643 73.9976 58.8321C56.6854 69.2869 39.3483 79.7002 21.9246 89.9542C16.5318 93.1278 10.9767 92.544 6.06217 88.6549C1.06969 84.7065 -0.503698 79.2602 0.66722 72.9212C2.00398 68.0957 5.06352 64.8696 9.23608 62.4561C16.1343 58.4662 22.9218 54.2659 29.7565 50.1545" fill="#FABC05"/>
<path d="M36.8252 45.9875C27.2212 40.2123 17.5929 34.4823 8.02256 28.6486C-1.06242 23.1104 -2.30625 10.9452 5.4098 3.83952C9.8733 -0.269647 16.6508 -1.20082 21.9563 1.94384C39.35 12.2534 56.7207 22.6067 74.0014 33.1163C79.3499 36.3691 81.6389 41.6473 80.8475 48.0025C80.0433 54.4563 76.2797 58.5914 70.3965 60.7108C65.6949 61.9242 61.4695 60.7908 57.3663 58.2528C50.5824 54.0562 43.6784 50.0649 36.8252 45.9875" fill="#109D58"/>
</svg>
