<svg width="37" height="32" viewBox="0 0 37 32" fill="none" xmlns="http://www.w3.org/2000/svg">
<path d="M3.6088 0C2.65169 0 1.73378 0.326993 1.05699 0.909045C0.380212 1.4911 0 2.28053 0 3.10367V18.622H3.6088V3.10367H21.6528V0H3.6088ZM10.8264 6.20735C9.86929 6.20735 8.95138 6.53434 8.2746 7.11639C7.59782 7.69844 7.2176 8.48787 7.2176 9.31102V24.8294H10.8264V9.31102H28.8704V6.20735H10.8264ZM32.4792 15.5184V27.9331H18.044V15.5184H32.4792ZM32.4792 12.4147H18.044C17.0869 12.4147 16.169 12.7417 15.4922 13.3237C14.8154 13.9058 14.4352 14.6952 14.4352 15.5184V27.9331C14.4352 28.7562 14.8154 29.5456 15.4922 30.1277C16.169 30.7097 17.0869 31.0367 18.044 31.0367H32.4792C33.4363 31.0367 34.3542 30.7097 35.031 30.1277C35.7078 29.5456 36.088 28.7562 36.088 27.9331V15.5184C36.088 14.6952 35.7078 13.9058 35.031 13.3237C34.3542 12.7417 33.4363 12.4147 32.4792 12.4147Z" fill="black"/>
</svg>
