<svg width="96" height="90" viewBox="0 0 96 90" fill="none" xmlns="http://www.w3.org/2000/svg">
<path d="M78.9311 29.141C77.9095 28.772 76.8791 28.4302 75.8411 28.1158C76.0155 27.3658 76.176 26.6249 76.3185 25.897C78.6578 13.944 77.1285 4.3144 71.9051 1.14388C66.897 -1.89559 58.7066 1.27375 50.4349 8.85151C49.6197 9.59967 48.8225 10.3694 48.0442 11.1599C47.5232 10.6342 46.993 10.1188 46.4539 9.61375C37.7846 1.51138 29.0951 -1.90349 23.8774 1.27612C18.8737 4.32506 17.3921 13.3776 19.4981 24.7057C19.7076 25.8277 19.9442 26.9438 20.2076 28.0531C18.9776 28.421 17.7907 28.8126 16.6549 29.2294C6.49087 32.9597 0 38.8053 0 44.8689C0 51.1314 6.96825 57.4128 17.5545 61.2216C18.4127 61.5292 19.2781 61.8141 20.1499 62.0762C19.8668 63.271 19.6154 64.4738 19.3961 65.6834C17.3884 76.8149 18.9562 85.6535 23.9464 88.6831C29.1004 91.8118 37.7509 88.5962 46.1737 80.8456C46.8568 80.2155 47.5247 79.5675 48.177 78.9023C49.0198 79.7583 49.8852 80.5894 50.772 81.3947C58.9312 88.7849 66.9893 91.7691 71.9745 88.7312C77.1236 85.5935 78.7973 76.0985 76.6245 64.5465C76.4533 63.6415 76.2614 62.741 76.0489 61.8457C76.6564 61.6562 77.2526 61.4612 77.8339 61.2584C88.8394 57.4203 96 51.2151 96 44.8689C96 38.7832 89.2995 32.8981 78.9311 29.141V29.141ZM76.5442 57.161C76.0192 57.3437 75.4807 57.5202 74.9317 57.6919C73.7167 53.6431 72.0772 49.3381 70.0706 44.8898C71.9854 40.5477 73.5619 36.2976 74.7427 32.2752C75.7249 32.5744 76.6777 32.8898 77.5965 33.2226C86.4802 36.442 91.899 41.2014 91.899 44.8689C91.899 48.7752 86.0467 53.8464 76.5442 57.161V57.161ZM72.6015 65.3849C73.5623 70.4928 73.6991 75.1112 73.0627 78.7219C72.4912 81.9662 71.3415 84.129 69.9195 84.9955C66.8944 86.8389 60.4245 84.4428 53.4469 78.1223C52.622 77.3736 51.8171 76.601 51.033 75.8052C53.7382 72.6911 56.4416 69.071 59.0801 65.0502C63.7211 64.6168 68.1056 63.9078 72.0818 62.9403C72.2733 63.7508 72.4466 64.5659 72.6015 65.3849V65.3849ZM32.7285 84.6769C29.7728 85.7755 27.4185 85.807 25.9954 84.9434C22.9672 83.1051 21.7084 76.0081 23.4255 66.4886C23.6296 65.3637 23.8633 64.245 24.1264 63.1337C28.0586 64.0495 32.4112 64.708 37.0631 65.1051C39.7196 69.0394 42.501 72.6556 45.3041 75.8222C44.7084 76.4289 44.0986 77.0202 43.4752 77.5953C39.7504 81.0224 36.018 83.454 32.7285 84.6769V84.6769ZM18.8812 57.1369C14.2001 55.4526 10.3343 53.2637 7.6845 50.8752C5.30325 48.729 4.10138 46.5978 4.10138 44.8689C4.10138 41.1891 9.31275 36.4957 18.0049 33.3059C19.0598 32.919 20.1638 32.5539 21.3094 32.2112C22.5109 36.3244 24.0866 40.6251 25.9883 44.9739C24.0619 49.387 22.4636 53.7564 21.2505 57.9181C20.4548 57.6782 19.6648 57.4177 18.8812 57.1369V57.1369ZM23.523 23.8764C21.7189 14.171 22.917 6.8498 25.9324 5.0123C29.1439 3.05519 36.2456 5.84559 43.731 12.8419C44.2191 13.2992 44.6993 13.7657 45.1714 14.2412C42.3821 17.394 39.6263 20.9834 36.9934 24.8944C32.4784 25.3349 28.1565 26.0423 24.183 26.9901C23.9382 25.9583 23.7181 24.9202 23.523 23.8768V23.8764ZM64.9331 34.6401C63.9946 32.9336 63.0212 31.2486 62.0137 29.5862C65.0767 29.994 68.0115 30.5352 70.7674 31.1968C69.9401 33.9883 68.9089 36.9066 67.695 39.8987C66.8077 38.1267 65.8869 36.3734 64.9331 34.6401V34.6401ZM48.0461 17.3265C49.9376 19.4837 51.8321 21.892 53.6955 24.5052C49.9155 24.3173 46.1292 24.3165 42.3491 24.5028C44.2144 21.9137 46.125 19.5086 48.0461 17.3265ZM31.0508 34.6697C30.1089 36.3891 29.2053 38.1314 28.3406 39.8952C27.1466 36.9137 26.1248 33.982 25.2904 31.151C28.0294 30.506 30.9503 29.9786 33.9938 29.5784C32.975 31.2508 31.9938 32.9483 31.0508 34.6693V34.6697ZM34.0811 60.4665C30.9368 60.097 27.972 59.5969 25.2338 58.9693C26.0813 56.0877 27.1256 53.0936 28.3455 50.0482C29.2136 51.8133 30.1209 53.5567 31.0669 55.2769C32.0396 57.0453 33.0469 58.7774 34.0811 60.4665ZM48.1594 72.7152C46.2154 70.5078 44.2766 68.0656 42.3833 65.439C44.2215 65.5148 46.0954 65.5535 48 65.5535C49.9567 65.5535 51.891 65.5073 53.7949 65.4181C51.9255 68.092 50.0381 70.5378 48.1594 72.7152ZM67.7336 49.8927C69.0169 52.9716 70.0984 55.9499 70.9571 58.7822C68.1739 59.4508 65.1686 59.9893 62.0021 60.3891C63.0168 58.6959 63.9994 56.9817 64.9492 55.2473C65.915 53.4844 66.8434 51.6991 67.7336 49.8927V49.8927ZM61.3969 53.0905C59.9427 55.7496 58.4068 58.3582 56.7915 60.9122C53.8656 61.1303 50.9332 61.2387 48 61.237C45.0124 61.237 42.1065 61.1391 39.3082 60.9481C37.6508 58.4 36.0856 55.7868 34.6159 53.1141H34.6162C33.1534 50.4556 31.7871 47.7396 30.5201 44.9719C31.7839 42.2036 33.1461 39.4863 34.6039 36.8257L34.6035 36.8261C36.0607 34.1649 37.6135 31.5629 39.2584 29.0257C42.1133 28.7983 45.0409 28.6799 47.9996 28.6799H48C50.9723 28.6799 53.9036 28.7995 56.7578 29.0285C58.386 31.5618 59.9289 34.1549 61.3834 36.8028C62.846 39.4575 64.2263 42.1616 65.5219 44.9107C64.2396 47.688 62.8637 50.4163 61.3969 53.0905V53.0905ZM69.8569 4.88362C73.0714 6.83519 74.3216 14.7051 72.3019 25.0255C72.1729 25.6839 72.0281 26.3545 71.8706 27.0347C67.8874 26.0668 63.5625 25.3472 59.0344 24.8999C56.3966 20.9459 53.6633 17.351 50.9194 14.2389C51.6385 13.5092 52.3747 12.7985 53.1274 12.1073C60.2149 5.61506 66.8389 3.05164 69.8569 4.88362V4.88362ZM48 35.8452C52.7344 35.8452 56.5725 39.8853 56.5725 44.8689C56.5725 49.8524 52.7344 53.8926 48 53.8926C43.2656 53.8926 39.4275 49.8524 39.4275 44.8689C39.4275 39.8853 43.2656 35.8452 48 35.8452V35.8452Z" fill="#00D8FF"/>
</svg>
