<svg width="36" height="53" viewBox="0 0 36 53" fill="none" xmlns="http://www.w3.org/2000/svg">
<path d="M9 53.0002C13.968 53.0002 18 49.0428 18 44.1668V35.3335H9C4.032 35.3335 0 39.2908 0 44.1668C0 49.0428 4.032 53.0002 9 53.0002Z" fill="#0ACF83"/>
<path d="M0 26.4998C0 21.6238 4.032 17.6665 9 17.6665H18V35.3332H9C4.032 35.3332 0 31.3758 0 26.4998Z" fill="#A259FF"/>
<path d="M0 8.83333C0 3.95733 4.032 0 9 0H18V17.6667H9C4.032 17.6667 0 13.7093 0 8.83333Z" fill="#F24E1E"/>
<path d="M18 0H27C31.968 0 36 3.95733 36 8.83333C36 13.7093 31.968 17.6667 27 17.6667H18V0Z" fill="#FF7262"/>
<path d="M36 26.4998C36 31.3758 31.968 35.3332 27 35.3332C22.032 35.3332 18 31.3758 18 26.4998C18 21.6238 22.032 17.6665 27 17.6665C31.968 17.6665 36 21.6238 36 26.4998Z" fill="#1ABCFE"/>
</svg>
