<svg width="66" height="43" viewBox="0 0 66 43" fill="none" xmlns="http://www.w3.org/2000/svg">
<path d="M65.3555 40.5668L62.3262 42.5805C61.8965 42.8322 61.3809 42.958 60.7793 42.958C60.1777 42.958 59.6621 42.8322 59.2324 42.5805L49.5 36.2039C46.9219 37.1548 44.1719 37.6302 41.25 37.6302C36.6953 37.6302 32.8066 36.5815 29.584 34.4839C26.3613 32.3863 24.75 29.8553 24.75 26.8907C24.75 23.9262 26.3613 21.3951 29.584 19.2976C32.8066 17.2 36.6953 16.1512 41.25 16.1512C45.8047 16.1512 49.6934 17.2 52.916 19.2976C56.1387 21.3951 57.75 23.9262 57.75 26.8907C57.75 28.7925 57.0195 30.5685 55.5586 32.2185L65.3555 38.5951C65.7852 38.8748 66 39.2034 66 39.581C66 39.9585 65.7852 40.2872 65.3555 40.5668ZM41.2822 18.8361C37.8662 18.8361 34.9443 19.6192 32.5166 21.1854C30.0889 22.7515 28.875 24.6463 28.875 26.8698C28.875 29.0932 30.0889 30.995 32.5166 32.5751C34.9443 34.1553 37.8662 34.9454 41.2822 34.9454C44.6982 34.9454 47.6094 34.1553 50.0156 32.5751C52.4219 30.995 53.625 29.0932 53.625 26.8698C53.625 24.6463 52.4219 22.7515 50.0156 21.1854C47.6094 19.6192 44.6982 18.8361 41.2822 18.8361ZM45.375 13.718V13.4663C45.375 12.7112 45.7832 12.075 46.5996 11.5576C47.416 11.0402 48.3828 10.7815 49.5 10.7815H57.75C58.9102 10.7815 59.8984 11.0402 60.7148 11.5576C61.5313 12.075 61.9395 12.7112 61.9395 13.4663V26.8907H61.875C61.875 23.6745 60.3174 20.8288 57.2022 18.3537C54.0869 15.8785 50.1445 14.3333 45.375 13.718ZM24.75 18.8361V8.09659C24.75 7.34146 25.1582 6.7052 25.9746 6.1878C26.791 5.67041 27.7578 5.41171 28.875 5.41171H37.125C38.2852 5.41171 39.2627 5.67041 40.0576 6.1878C40.8525 6.7052 41.25 7.34146 41.25 8.09659V13.4663C37.9414 13.4663 34.8477 13.9488 31.9688 14.9137C29.0898 15.8785 26.6836 17.186 24.75 18.8361ZM24.75 34.9034C26.6836 36.5815 29.0898 37.9029 31.9688 38.8678C34.8477 39.8327 37.9414 40.3151 41.25 40.3151H45.375C45.375 41.0423 44.9775 41.6715 44.1826 42.2029C43.3877 42.7343 42.4102 43 41.25 43H4.125C3.00781 43 2.04102 42.7343 1.22461 42.2029C0.408203 41.6715 0 41.0353 0 40.2941C0 39.553 0.397461 38.9237 1.19238 38.4063C1.9873 37.8889 2.96484 37.6302 4.125 37.6302V2.68488C4.125 1.95772 4.5332 1.32846 5.34961 0.797073C6.16602 0.265691 7.13281 0 8.25 0H16.5C17.6602 0 18.6377 0.265691 19.4326 0.797073C20.2275 1.32846 20.625 1.95772 20.625 2.68488V37.6302H24.75V34.9034Z" fill="#1ABCFE"/>
</svg>
