<svg width="22" height="22" viewBox="0 0 22 22"  xmlns="http://www.w3.org/2000/svg">
<path fill="white" fill-rule="evenodd" clip-rule="evenodd" d="M10.9194 0C4.88908 0 0 4.88936 0 10.9206C0 15.7452 3.12816 19.8383 7.46788 21.2814C8.01444 21.3825 8.21324 21.0462 8.21324 20.7558C8.21324 20.4971 8.20372 19.8108 8.19896 18.8986C5.16124 19.5591 4.52032 17.4345 4.52032 17.4345C4.0236 16.1731 3.30764 15.8376 3.30764 15.8376C2.31616 15.1606 3.38296 15.1738 3.38296 15.1738C4.47888 15.2513 5.05568 16.2988 5.05568 16.2988C6.02952 17.9676 7.6118 17.4846 8.23368 17.2068C8.33252 16.4998 8.61532 16.0196 8.92696 15.7461C6.50244 15.4706 3.95332 14.5337 3.95332 10.3494C3.95332 9.15684 4.37864 8.18188 5.07696 7.41832C4.96524 7.14336 4.58976 6.03316 5.1842 4.529C5.1842 4.529 6.10092 4.23556 8.18748 5.64928C9.058 5.40596 9.99236 5.28444 10.9211 5.2808C11.8485 5.28472 12.7831 5.40596 13.6548 5.64928C15.7399 4.23556 16.6552 4.529 16.6552 4.529C17.2511 6.03316 16.8759 7.14336 16.7639 7.41832C17.4639 8.18188 17.8861 9.15684 17.8861 10.3494C17.8861 14.5435 15.3334 15.4675 12.9007 15.7368C13.2922 16.0742 13.6416 16.742 13.6416 17.761C13.6416 19.22 13.6284 20.3974 13.6284 20.7556C13.6284 21.0482 13.8247 21.3884 14.3791 21.28C18.7141 19.8338 21.84 15.7438 21.84 10.9206C21.84 4.88936 16.9509 0 10.9194 0V0Z" fill="black"/>
</svg>
