<svg width="90" height="42" viewBox="0 0 90 42" fill="none" xmlns="http://www.w3.org/2000/svg">
<path d="M64.7979 22.8964C69.5331 20.2802 74.2557 17.6427 79.0071 15.0539C83.5169 12.5956 88.8227 14.8625 89.8454 19.6458C90.4371 22.4128 89.1528 25.4021 86.5558 26.858C78.0417 31.6308 69.5152 36.3847 60.9462 41.0659C58.294 42.5147 55.562 42.2482 53.145 40.4727C50.6897 38.6702 49.9159 36.1838 50.4917 33.2899C51.1491 31.087 52.6538 29.6142 54.7059 28.5124C58.0985 26.6909 61.4366 24.7734 64.7979 22.8964Z" fill="#FABC05"/>
<path d="M68.2741 20.9945C63.5508 18.358 58.8156 15.7422 54.1089 13.0789C49.6409 10.5506 49.0292 4.99694 52.8239 1.75305C55.0191 -0.122875 58.3523 -0.547977 60.9616 0.887628C69.5158 5.59418 78.0588 10.3207 86.5575 15.1185C89.1879 16.6035 90.3136 19.0131 89.9244 21.9144C89.5289 24.8607 87.678 26.7485 84.7846 27.716C82.4724 28.27 80.3943 27.7525 78.3763 26.5939C75.0399 24.6781 71.6445 22.8559 68.2741 20.9945Z" fill="#109D58"/>
<path d="M25.2253 19.1289C22.1945 20.7853 19.1619 22.4387 16.1339 24.1002C14.3631 25.0722 12.6112 26.0773 10.8313 27.033C7.24426 28.959 2.9826 27.8301 0.948804 24.4377C-0.99218 21.2006 0.123332 17.0037 3.5778 15.0639C12.0241 10.3215 20.4922 5.61358 28.9909 0.958093C31.5974 -0.469395 34.3017 -0.289818 36.712 1.41701C39.2559 3.21854 40.0887 5.75359 39.5175 8.72523C39.1631 9.44456 38.9514 10.2877 38.4206 10.8541C37.5578 11.7757 36.577 12.658 35.485 13.306C32.1058 15.3104 28.6506 17.1968 25.2253 19.1289Z" fill="#E94436"/>
<path d="M21.7498 20.9867C24.7568 22.683 27.7616 24.3831 30.7713 26.0747C32.5316 27.0642 34.3123 28.021 36.0627 29.0257C39.5903 31.0514 40.7051 35.1658 38.6678 38.5562C36.7236 41.7919 32.3878 42.9614 28.914 41.053C20.4213 36.3877 11.9489 31.6876 3.50859 26.935C0.92003 25.4774 -0.270365 23.1348 0.0611597 20.2734C0.410966 17.2531 2.27671 15.2919 5.23794 14.2818C6.06235 14.2178 6.9272 13.9723 7.70275 14.1313C8.96381 14.3896 10.2488 14.7654 11.378 15.3511C14.8722 17.1638 18.2978 19.0989 21.7498 20.9867Z" fill="#4385F3"/>
</svg>
