<svg width="55" height="51" viewBox="0 0 55 51" fill="none" xmlns="http://www.w3.org/2000/svg">
<path d="M41.5306 8.07959H3.36735C2.47427 8.07959 1.61777 8.39879 0.986273 8.96697C0.354773 9.53515 0 10.3058 0 11.1093L0 47.9707C0 48.7742 0.354773 49.5448 0.986273 50.113C1.61777 50.6812 2.47427 51.0004 3.36735 51.0004H41.5306C42.4237 51.0004 43.2802 50.6812 43.9117 50.113C44.5432 49.5448 44.898 48.7742 44.898 47.9707V11.1093C44.898 10.3058 44.5432 9.53515 43.9117 8.96697C43.2802 8.39879 42.4237 8.07959 41.5306 8.07959Z" fill="#35495E"/>
<path opacity="0.2" d="M42.6531 8.07959H30.3061C28.7563 8.07959 27.5 9.20996 27.5 10.6043V43.9311C27.5 45.3255 28.7563 46.4558 30.3061 46.4558H42.6531C44.2028 46.4558 45.4592 45.3255 45.4592 43.9311V10.6043C45.4592 9.20996 44.2028 8.07959 42.6531 8.07959Z" fill="black"/>
<path d="M42.6533 47.4656C42.6533 47.8673 42.4759 48.2526 42.1601 48.5367C41.8444 48.8208 41.4161 48.9804 40.9696 48.9804H3.92879C3.48225 48.9804 3.054 48.8208 2.73825 48.5367C2.4225 48.2526 2.24512 47.8673 2.24512 47.4656V16.6636H42.6533V47.4656Z" fill="white"/>
<path d="M5.05086 14.1386C5.98073 14.1386 6.73453 13.4604 6.73453 12.6237C6.73453 11.7871 5.98073 11.1089 5.05086 11.1089C4.12099 11.1089 3.36719 11.7871 3.36719 12.6237C3.36719 13.4604 4.12099 14.1386 5.05086 14.1386Z" fill="#D15527"/>
<path d="M9.5411 14.1386C10.471 14.1386 11.2248 13.4604 11.2248 12.6237C11.2248 11.7871 10.471 11.1089 9.5411 11.1089C8.61123 11.1089 7.85742 11.7871 7.85742 12.6237C7.85742 13.4604 8.61123 14.1386 9.5411 14.1386Z" fill="#F19B2D"/>
<path d="M14.0304 14.1386C14.9602 14.1386 15.714 13.4604 15.714 12.6237C15.714 11.7871 14.9602 11.1089 14.0304 11.1089C13.1005 11.1089 12.3467 11.7871 12.3467 12.6237C12.3467 13.4604 13.1005 14.1386 14.0304 14.1386Z" fill="#53BB72"/>
<path fill-rule="evenodd" clip-rule="evenodd" d="M3.36719 18.1782H39.2856V46.4554H3.36719V18.1782Z" fill="#14A085"/>
<path fill-rule="evenodd" clip-rule="evenodd" d="M19.082 18.6831H40.4086V46.9603H19.082V18.6831Z" fill="#26B99A"/>
<path fill-rule="evenodd" clip-rule="evenodd" d="M51.633 0H31.4289C30.5358 0 29.6793 0.3192 29.0478 0.887379C28.4163 1.45556 28.0615 2.22618 28.0615 3.0297V41.4064C28.0618 42.2098 28.4167 42.9802 29.0482 43.5481C29.6797 44.1161 30.536 44.4351 31.4289 44.4351H51.633C52.5258 44.4351 53.3822 44.1161 54.0136 43.5481C54.6451 42.9802 55 42.2098 55.0003 41.4064V3.0297C55.0003 2.22618 54.6455 1.45556 54.014 0.887379C53.3825 0.3192 52.526 0 51.633 0V0ZM52.7554 37.3663H30.3064V7.06931H52.7554V37.3663Z" fill="#35495E"/>
<path fill-rule="evenodd" clip-rule="evenodd" d="M30.3066 7.06934H52.7556V37.3664H30.3066V7.06934Z" fill="white"/>
<path fill-rule="evenodd" clip-rule="evenodd" d="M31.9893 8.58398H51.0709V35.8513H31.9893V8.58398Z" fill="#14A085"/>
<path fill-rule="evenodd" clip-rule="evenodd" d="M31.9893 22.2178H51.0709V35.8514H31.9893V22.2178Z" fill="#26B99A"/>
<path fill-rule="evenodd" clip-rule="evenodd" d="M37.8829 3.02979H44.6175C44.8408 3.02979 45.0549 3.10959 45.2128 3.25163C45.3707 3.39367 45.4594 3.58633 45.4594 3.78721C45.4594 3.98809 45.3707 4.18075 45.2128 4.32279C45.0549 4.46484 44.8408 4.54464 44.6175 4.54464H37.8829C37.6596 4.54464 37.4455 4.46484 37.2876 4.32279C37.1297 4.18075 37.041 3.98809 37.041 3.78721C37.041 3.58633 37.1297 3.39367 37.2876 3.25163C37.4455 3.10959 37.6596 3.02979 37.8829 3.02979ZM41.5308 39.3867C41.9772 39.3867 42.4053 39.5463 42.721 39.8303C43.0366 40.1143 43.2139 40.4994 43.2139 40.9011C43.2139 41.3027 43.0366 41.6879 42.721 41.9719C42.4053 42.2559 41.9772 42.4154 41.5308 42.4154C41.3061 42.4206 41.0826 42.3853 40.8733 42.3116C40.664 42.2378 40.4732 42.1271 40.3123 41.986C40.1513 41.8448 40.0234 41.6761 39.936 41.4898C39.8487 41.3035 39.8037 41.1033 39.8037 40.9011C39.8037 40.6988 39.8487 40.4987 39.936 40.3123C40.0234 40.126 40.1513 39.9573 40.3123 39.8162C40.4732 39.675 40.664 39.5643 40.8733 39.4906C41.0826 39.4168 41.3061 39.3815 41.5308 39.3867Z" fill="#2C3D4F"/>
</svg>
