<svg width="59" height="63" viewBox="0 0 59 63" fill="none" xmlns="http://www.w3.org/2000/svg">
<path d="M21.7577 34.3449C28.7553 30.4206 35.7342 26.4643 42.7557 22.5811C49.4203 18.8937 57.2611 22.294 58.7724 29.469C59.6468 33.6195 57.7489 38.1034 53.9111 40.2872C41.3291 47.4465 28.7288 54.5773 16.0657 61.5991C12.1464 63.7723 8.10908 63.3725 4.53729 60.7093C0.908875 58.0055 -0.234624 54.276 0.616371 49.9352C1.5879 46.6308 3.8115 44.4216 6.84401 42.7688C11.8575 40.0366 16.7905 37.1603 21.7577 34.3449Z" fill="#E94436"/>
<path d="M26.8947 31.4915C19.9147 27.5367 12.9171 23.6129 5.96163 19.6181C-0.641118 15.8256 -1.54511 7.49507 4.06273 2.62924C7.3067 -0.184649 12.2324 -0.8223 16.0884 1.33111C28.7296 8.39093 41.3543 15.4807 53.9135 22.6775C57.8006 24.9049 59.4642 28.5193 58.8891 32.8713C58.3046 37.2907 55.5692 40.1223 51.2935 41.5737C47.8765 42.4046 44.8056 41.6285 41.8234 39.8905C36.8931 37.0168 31.8754 34.2835 26.8947 31.4915" fill="#35495E"/>
</svg>
