<svg width="102" height="107" viewBox="0 0 102 107" fill="none" xmlns="http://www.w3.org/2000/svg">
<path d="M48.2082 17.722C48.2082 17.1718 48.3637 16.6339 48.6551 16.1764C48.9465 15.7189 49.3607 15.3624 49.8453 15.1518C50.3299 14.9412 50.8631 14.8862 51.3776 14.9935C51.892 15.1008 52.3645 15.3658 52.7354 15.7549C53.1063 16.1439 53.3589 16.6396 53.4612 17.1793C53.5635 17.719 53.511 18.2783 53.3103 18.7867C53.1096 19.295 52.7697 19.7295 52.3336 20.0352C51.8974 20.3409 51.3847 20.504 50.8602 20.504C50.5118 20.5045 50.1668 20.4328 49.8448 20.2932C49.5229 20.1535 49.2303 19.9486 48.984 19.6902C48.7377 19.4318 48.5423 19.1249 48.4092 18.7872C48.2761 18.4495 48.2078 18.0875 48.2082 17.722V17.722ZM16.5754 42.9139C16.5754 42.3636 16.731 41.8258 17.0224 41.3683C17.3138 40.9108 17.728 40.5542 18.2126 40.3436C18.6971 40.1331 19.2304 40.078 19.7448 40.1853C20.2592 40.2926 20.7318 40.5576 21.1027 40.9467C21.4736 41.3358 21.7261 41.8315 21.8285 42.3711C21.9308 42.9108 21.8783 43.4701 21.6776 43.9785C21.4768 44.4868 21.1369 44.9213 20.7008 45.227C20.2647 45.5327 19.7519 45.6959 19.2274 45.6959C18.8792 45.6959 18.5343 45.6239 18.2126 45.4841C17.8908 45.3443 17.5984 45.1394 17.3522 44.881C17.1059 44.6227 16.9106 44.316 16.7773 43.9785C16.644 43.6409 16.5754 43.2792 16.5754 42.9139V42.9139ZM79.8664 43.0443C79.8664 42.494 80.022 41.9562 80.3134 41.4987C80.6048 41.0412 81.019 40.6846 81.5036 40.474C81.9881 40.2635 82.5214 40.2084 83.0358 40.3157C83.5502 40.4231 84.0228 40.688 84.3937 41.0771C84.7646 41.4662 85.0171 41.9619 85.1195 42.5015C85.2218 43.0412 85.1693 43.6005 84.9686 44.1089C84.7678 44.6172 84.4279 45.0517 83.9918 45.3574C83.5557 45.6631 83.0429 45.8263 82.5184 45.8263C82.17 45.8267 81.825 45.755 81.5031 45.6154C81.1811 45.4757 80.8886 45.2708 80.6423 45.0124C80.3959 44.754 80.2006 44.4471 80.0674 44.1094C79.9343 43.7717 79.866 43.4097 79.8664 43.0443V43.0443ZM24.2414 46.8561C24.826 46.5825 25.2837 46.0771 25.5142 45.4506C25.7448 44.824 25.7295 44.1272 25.4717 43.5124L24.2956 40.7204H28.9238V62.6052H19.5844C18.4317 58.3583 18.0723 53.9177 18.5262 49.5278L24.2414 46.8561ZM43.6022 47.3945V40.9444H54.6246C55.1952 40.9444 58.6441 41.6332 58.6441 44.3416C58.6441 46.5886 55.9984 47.3945 53.8214 47.3945H43.6022ZM28.5541 82.126C28.5541 81.5758 28.7096 81.0379 29.001 80.5804C29.2924 80.1229 29.7066 79.7663 30.1912 79.5558C30.6758 79.3452 31.209 79.2901 31.7234 79.3975C32.2379 79.5048 32.7104 79.7698 33.0813 80.1588C33.4522 80.5479 33.7048 81.0436 33.8071 81.5833C33.9094 82.1229 33.8569 82.6823 33.6562 83.1906C33.4555 83.699 33.1155 84.1335 32.6794 84.4392C32.2433 84.7448 31.7306 84.908 31.2061 84.908C30.8577 84.9084 30.5126 84.8368 30.1907 84.6971C29.8687 84.5575 29.5762 84.3526 29.3299 84.0942C29.0835 83.8357 28.8882 83.5289 28.7551 83.1912C28.6219 82.8534 28.5536 82.4915 28.5541 82.126V82.126ZM67.8591 82.2564C67.8591 81.7062 68.0147 81.1683 68.3061 80.7108C68.5975 80.2533 69.0116 79.8967 69.4962 79.6862C69.9808 79.4756 70.5141 79.4205 71.0285 79.5279C71.5429 79.6352 72.0155 79.9002 72.3864 80.2892C72.7573 80.6783 73.0098 81.174 73.1122 81.7137C73.2145 82.2533 73.162 82.8127 72.9612 83.321C72.7605 83.8294 72.4206 84.2639 71.9845 84.5696C71.5484 84.8753 71.0356 85.0384 70.5111 85.0384C69.8078 85.0384 69.1332 84.7453 68.6359 84.2236C68.1385 83.7019 67.8591 82.9942 67.8591 82.2564ZM68.6783 75.9468C68.3677 75.8771 68.047 75.8723 67.7347 75.9328C67.4223 75.9933 67.1244 76.1178 66.8579 76.2991C66.5915 76.4805 66.3617 76.7152 66.1819 76.9898C66.002 77.2644 65.8754 77.5736 65.8096 77.8995L64.4772 84.4165C60.1951 86.4506 55.5449 87.4914 50.8443 87.4677C46.1437 87.444 41.5033 86.3565 37.24 84.2794L35.9108 77.7624C35.7762 77.1052 35.3986 76.5308 34.8608 76.1653C34.3229 75.7998 33.6688 75.6731 33.0421 75.813L27.5564 77.0502C26.5368 75.9491 25.589 74.7772 24.7195 73.5426H51.4116C51.7144 73.5426 51.9152 73.4858 51.9152 73.2082V63.2907C51.9152 63.0031 51.7144 62.9563 51.4116 62.9563H43.6022V56.6667H52.0459C53.3046 56.6799 54.5178 57.162 55.4689 58.0268C56.42 58.8917 57.0472 60.083 57.2384 61.3881C57.5731 62.769 58.3094 67.263 58.813 68.7009C59.3134 70.3159 61.363 73.5393 63.5369 73.5393H77.3164C76.3924 74.8389 75.3815 76.068 74.2915 77.2174L68.6783 75.9468ZM83.5002 49.7953C83.6877 51.7723 83.7112 53.7626 83.5703 55.7438H80.2202C79.8856 55.7438 79.7485 55.9745 79.7485 56.3189V57.934C79.7485 61.7325 77.7053 62.5617 75.9235 62.7724C74.2182 62.973 72.328 62.0234 72.0985 60.93C71.9756 59.0362 71.4293 57.1994 70.504 55.5682C69.5787 53.9371 68.3002 52.5573 66.7722 51.5407C70.0553 49.3539 73.4659 46.1272 73.4659 41.8071C73.3983 39.9716 72.8939 38.183 71.9986 36.6044C71.1034 35.0257 69.8458 33.7072 68.3404 32.7689C66.2406 31.3422 63.8251 30.5083 61.3279 30.348H26.6702C31.4611 24.7307 37.8841 20.9276 44.9442 19.5277L49.0306 24.0217C49.2494 24.2628 49.5114 24.4564 49.8017 24.5913C50.0919 24.7262 50.4046 24.7998 50.7219 24.8078C51.0392 24.8159 51.3549 24.7583 51.651 24.6383C51.9471 24.5184 52.2178 24.3384 52.4476 24.1086L57.0184 19.521C61.6789 20.4382 66.0932 22.4088 69.9545 25.296C73.8159 28.1831 77.0318 31.9175 79.3787 36.2397L76.2486 43.6528C75.9917 44.2677 75.9769 44.9642 76.2074 45.5905C76.4378 46.2168 76.8949 46.7222 77.479 46.9966L83.5002 49.7953ZM91.3032 49.9157L91.198 48.7688L94.4206 45.6156C94.5427 45.4823 94.6385 45.325 94.7026 45.1527C94.7666 44.9805 94.7976 44.7967 94.7937 44.6118C94.7899 44.427 94.7513 44.2447 94.6801 44.0756C94.609 43.9064 94.5067 43.7537 94.3791 43.6261C94.2662 43.5133 94.1358 43.4217 93.9934 43.3552L89.8879 41.7402L89.5692 40.6234L92.1383 36.8784C92.3281 36.5629 92.391 36.1814 92.3134 35.8173C92.2357 35.4532 92.0238 35.1362 91.7239 34.9357C91.5935 34.8498 91.4501 34.7876 91.3 34.7518L86.9554 34.0094L86.4327 32.9863L88.2591 28.7832C88.3237 28.6119 88.3555 28.429 88.3526 28.2449C88.3498 28.0607 88.3124 27.879 88.2425 27.7101C88.1726 27.5411 88.0717 27.3883 87.9455 27.2603C87.8192 27.1323 87.6702 27.0317 87.5069 26.9642C87.3584 26.9034 87.2008 26.8706 87.0415 26.8672L82.6332 27.0277L81.9192 26.1449L82.9328 21.6409C82.963 21.4587 82.9587 21.272 82.9201 21.0915C82.8815 20.911 82.8094 20.7403 82.7079 20.589C82.6063 20.4378 82.4774 20.309 82.3284 20.2101C82.1794 20.1112 82.0132 20.044 81.8395 20.0125C81.6876 19.9858 81.5324 19.9858 81.3805 20.0125L77.0837 21.0658L76.2359 20.3335L76.3921 15.7158C76.3879 15.5309 76.3491 15.3487 76.2778 15.1796C76.2065 15.0104 76.1042 14.8577 75.9766 14.7301C75.849 14.6024 75.6987 14.5024 75.5343 14.4358C75.3698 14.3691 75.1945 14.3371 75.0182 14.3415C74.8645 14.3458 74.7125 14.3774 74.5688 14.4351L70.5621 16.3511L69.5867 15.8027L68.8791 11.2452C68.8007 10.8834 68.5892 10.5687 68.2908 10.3696C67.9923 10.1705 67.631 10.103 67.2854 10.1819C67.1352 10.2178 66.9919 10.2799 66.8614 10.3658L63.2882 13.0609L62.2268 12.7265L60.6872 8.40301C60.5434 8.06167 60.2763 7.79419 59.9446 7.65939C59.6128 7.52458 59.2437 7.53347 58.9182 7.6841C58.7776 7.7507 58.6484 7.84107 58.5357 7.9516L55.5203 11.3355L54.427 11.2251L52.1065 7.28954C51.9826 7.10532 51.8183 6.95501 51.6275 6.85126C51.4367 6.74751 51.2249 6.69336 51.01 6.69336C50.7951 6.69336 50.5833 6.74751 50.3925 6.85126C50.2017 6.95501 50.0374 7.10532 49.9135 7.28954L47.593 11.2251L46.4997 11.3355L43.4939 7.9516C43.236 7.69454 42.8913 7.55542 42.5357 7.56482C42.18 7.57423 41.8425 7.73139 41.5973 8.00176C41.4919 8.11996 41.4058 8.25551 41.3423 8.40301L39.79 12.7064L38.7286 13.0408L35.1586 10.3658C34.8578 10.1667 34.4941 10.1007 34.1471 10.1821C33.8 10.2636 33.4978 10.4859 33.3066 10.8005C33.2248 10.9373 33.1655 11.0877 33.1313 11.2452L32.4237 15.8027L31.4483 16.3511L27.4384 14.4351C27.1074 14.3007 26.7391 14.3093 26.4141 14.4591C26.0891 14.6088 25.8339 14.8876 25.7044 15.2343C25.6494 15.3885 25.6193 15.5512 25.6152 15.7158L25.7682 20.3402L24.9203 21.0658L20.6267 20.0092C20.453 19.9775 20.275 19.982 20.103 20.0225C19.9309 20.063 19.7682 20.1386 19.624 20.2451C19.4798 20.3517 19.3571 20.4869 19.2628 20.6432C19.1685 20.7995 19.1045 20.9738 19.0744 21.1561C19.0489 21.3155 19.0489 21.4782 19.0744 21.6376L20.0817 26.1449L19.3868 27.031L14.9817 26.8705C14.7665 26.8764 14.5558 26.9364 14.3673 27.0454C14.1789 27.1544 14.0181 27.3093 13.8984 27.497C13.7788 27.6847 13.7039 27.8998 13.68 28.1242C13.656 28.3486 13.6838 28.5757 13.7609 28.7865L15.5873 32.9896L15.0646 34.0128L10.72 34.7551C10.3747 34.8366 10.0742 35.0583 9.88421 35.3716C9.69426 35.6849 9.63031 36.0643 9.70637 36.427C9.74057 36.5845 9.79984 36.7348 9.88168 36.8717L12.4508 40.6167L12.1321 41.7335L8.01062 43.3485C7.68523 43.4994 7.43025 43.7796 7.30175 44.1276C7.17324 44.4756 7.18171 44.8629 7.3253 45.2043C7.38791 45.3541 7.47532 45.4911 7.58349 45.6089L10.8061 48.7621L10.7009 49.909L6.94918 52.3432C6.77357 52.4732 6.63028 52.6455 6.53138 52.8457C6.43248 53.0459 6.38086 53.268 6.38086 53.4935C6.38086 53.7189 6.43248 53.9411 6.53138 54.1413C6.63028 54.3414 6.77357 54.5137 6.94918 54.6437L10.7009 57.078L10.8061 58.2249L7.58349 61.378C7.33844 61.6486 7.20582 62.0101 7.21479 62.3832C7.22375 62.7563 7.37357 63.1103 7.6313 63.3676C7.7428 63.4781 7.87097 63.5685 8.01062 63.6351L12.1321 65.2501L12.4508 66.3669L9.88168 70.1253C9.78744 70.2816 9.72348 70.4558 9.69346 70.6381C9.66344 70.8203 9.66795 71.007 9.70673 71.1874C9.74551 71.3678 9.81779 71.5385 9.91946 71.6896C10.0211 71.8407 10.1502 71.9693 10.2992 72.068C10.4297 72.1539 10.573 72.216 10.7232 72.2519L15.0677 72.9942L15.5905 74.0208L13.7641 78.2238C13.6359 78.572 13.6445 78.9592 13.7879 79.3007C13.9312 79.6422 14.1977 79.9103 14.5291 80.0462C14.6749 80.1039 14.829 80.1355 14.9849 80.1398L19.3932 79.9793L20.0912 80.8688L19.0808 85.3761C19.0197 85.7428 19.0998 86.1199 19.3036 86.4247C19.5075 86.7294 19.8183 86.9367 20.1677 87.0012C20.3216 87.0311 20.4793 87.0311 20.6331 87.0012L24.9203 85.9345L25.7682 86.6635L25.612 91.2845C25.6157 91.4688 25.6541 91.6505 25.7249 91.8192C25.7956 91.988 25.8975 92.1403 26.0245 92.2677C26.1515 92.3951 26.3013 92.4949 26.4651 92.5614C26.629 92.6279 26.8038 92.6599 26.9794 92.6555C27.1355 92.6529 27.2898 92.6212 27.4352 92.5618L31.4419 90.6459L32.4173 91.1943L33.1249 95.7484C33.2027 96.1109 33.4138 96.4263 33.7124 96.6262C34.0109 96.826 34.3726 96.8939 34.7187 96.8151C34.8693 96.7807 35.0128 96.7184 35.1426 96.6312L38.7126 93.9328L39.7772 94.2672L41.3168 98.5873C41.4619 98.9283 41.7298 99.195 42.062 99.3292C42.3942 99.4633 42.7635 99.4538 43.0891 99.3029C43.2287 99.2363 43.3569 99.1459 43.4684 99.0354L46.4742 95.6548L47.5675 95.7685L49.888 99.7041C50.0944 100.009 50.4077 100.215 50.7592 100.278C51.1106 100.341 51.4714 100.255 51.7622 100.038C51.886 99.9471 51.9939 99.834 52.081 99.7041L54.4015 95.7685L55.4948 95.6548L58.5006 99.0354C58.7585 99.2924 59.1032 99.4315 59.4588 99.4221C59.8144 99.4127 60.152 99.2556 60.3972 98.9852C60.5025 98.8682 60.5887 98.7338 60.6522 98.5873L62.1917 94.2672L63.2564 93.9328L66.8264 96.6312C66.9754 96.7301 67.1415 96.7972 67.3152 96.8286C67.4889 96.8601 67.6669 96.8554 67.8389 96.8147C68.0108 96.774 68.1735 96.6982 68.3175 96.5916C68.4616 96.4849 68.5842 96.3495 68.6783 96.1932C68.7601 96.0563 68.8194 95.906 68.8536 95.7484L69.5612 91.1943L70.5366 90.6459L74.5433 92.5618C74.8743 92.6963 75.2426 92.6877 75.5676 92.5379C75.8926 92.3882 76.1478 92.1094 76.2773 91.7627C76.3323 91.6097 76.3625 91.448 76.3666 91.2845L76.2136 86.6568L77.0582 85.9279L81.3518 86.9878C81.7013 87.0521 82.0607 86.9685 82.3516 86.7555C82.6425 86.5424 82.8412 86.2172 82.9041 85.8509C82.9296 85.6893 82.9296 85.5244 82.9041 85.3628L81.9192 80.8621L82.6141 79.9726L87.0224 80.1331C87.3777 80.1235 87.715 79.9663 87.96 79.6961C88.205 79.4259 88.3378 79.0648 88.3292 78.692C88.3273 78.5293 88.297 78.3684 88.24 78.2172L86.4136 74.0141L86.9363 72.9875L91.2809 72.2452C91.6263 72.1637 91.9271 71.9422 92.1176 71.629C92.308 71.3158 92.3728 70.9364 92.2977 70.5734C92.2629 70.4134 92.2026 70.2607 92.1192 70.1219L89.5501 66.3769L89.8688 65.2601L93.9902 63.6451C94.1512 63.5707 94.2967 63.4638 94.4183 63.3305C94.5399 63.1971 94.6352 63.0399 94.6989 62.8679C94.7625 62.6958 94.7932 62.5123 94.7892 62.3278C94.7852 62.1433 94.7466 61.9615 94.6756 61.7927C94.613 61.6429 94.5255 61.5059 94.4174 61.3881L91.1948 58.2349L91.3 57.088L95.0517 54.6538C95.2273 54.5238 95.3706 54.3515 95.4695 54.1513C95.5684 53.9511 95.62 53.729 95.62 53.5035C95.62 53.278 95.5684 53.0559 95.4695 52.8557C95.3706 52.6556 95.2273 52.4832 95.0517 52.3533L91.3032 49.9157Z" fill="url(#paint0_radial_501_139)"/>
<defs>
<radialGradient id="paint0_radial_501_139" cx="0" cy="0" r="1" gradientUnits="userSpaceOnUse" gradientTransform="translate(51.0473 54.6267) rotate(-31.202) scale(45.1744 27.7528)">
<stop stop-color="#7D7D7D"/>
<stop offset="0.267" stop-color="#7E7C7A"/>
<stop offset="0.45" stop-color="#817871"/>
<stop offset="0.608" stop-color="#867162"/>
<stop offset="0.753" stop-color="#8D684C"/>
<stop offset="0.886" stop-color="#965C30"/>
<stop offset="1" stop-color="#A04F12"/>
</radialGradient>
</defs>
</svg>
