<svg width="30" height="32" viewBox="0 0 30 32" fill="none" xmlns="http://www.w3.org/2000/svg">
<path d="M11.2372 17.445C14.7623 15.4517 18.278 13.4422 21.8151 11.4697C25.1725 9.59676 29.1224 11.3239 29.8837 14.9683C30.3242 17.0766 29.3681 19.3541 27.4348 20.4633C21.0965 24.0998 14.749 27.7218 8.3698 31.2884C6.39538 32.3922 4.36156 32.1892 2.56223 30.8364C0.734376 29.4631 0.158327 27.5687 0.587024 25.3639C1.07644 23.6854 2.1966 22.5633 3.72426 21.7238C6.24986 20.336 8.7349 18.8751 11.2372 17.445" fill="#FABC05"/>
<path d="M13.8254 15.9956C10.3092 13.9869 6.78406 11.9938 3.28015 9.96471C-0.0460523 8.03839 -0.501445 3.807 2.32356 1.33546C3.95774 -0.0938141 6.43911 -0.417701 8.3816 0.676093C14.7498 4.26204 21.1096 7.86318 27.4364 11.5187C29.3946 12.6501 30.2326 14.486 29.9429 16.6965C29.6484 18.9413 28.2705 20.3796 26.1165 21.1168C24.3952 21.5388 22.8482 21.1446 21.3459 20.2618C18.8622 18.8021 16.3345 17.4138 13.8254 15.9956" fill="#109D58"/>
</svg>
