<svg width="28" height="30" viewBox="0 0 28 30" fill="none" xmlns="http://www.w3.org/2000/svg">
<path d="M25.6491 0H2.04486C0.916053 0 0 0.951515 0 2.12321V27.3402C0 28.5135 0.916053 29.4663 2.04486 29.4663H25.6491C26.7787 29.4663 27.7009 28.5135 27.7009 27.3402V2.12321C27.7009 0.951515 26.7787 0 25.6491 0ZM8.21562 25.1094H4.10512V11.0478H8.21562V25.1094ZM6.16037 9.12514C5.84749 9.12514 5.53769 9.05956 5.24865 8.93214C4.95961 8.80473 4.69701 8.61799 4.47584 8.38258C4.25468 8.14717 4.07929 7.8677 3.9597 7.56016C3.84011 7.25262 3.77866 6.92303 3.77886 6.59022C3.77886 5.9184 4.02975 5.2741 4.47633 4.79906C4.92291 4.32402 5.52861 4.05714 6.16017 4.05714C6.79174 4.05714 7.39743 4.32402 7.84402 4.79906C8.2906 5.2741 8.54149 5.9184 8.54149 6.59022C8.54149 7.26216 8.29068 7.90662 7.84419 8.38195C7.3977 8.85728 6.79206 9.12459 6.16037 9.12514ZM23.6035 25.1094H19.4995V18.2716C19.4995 16.6403 19.4695 14.5428 17.3638 14.5428C15.2255 14.5428 14.8996 16.3194 14.8996 18.1533V25.1098H10.7926V11.0478H14.7342V12.968H14.7903C15.339 11.863 16.6794 10.6971 18.6785 10.6971C22.8359 10.6971 23.6038 13.6085 23.6038 17.3962L23.6035 25.1094Z" fill="#3771C8"/>
</svg>
