<svg width="61" height="48" viewBox="0 0 61 48" fill="none" xmlns="http://www.w3.org/2000/svg">
<path d="M38.8179 48H11.0918V43.2017H38.8179V48ZM58.2261 4.79832L45.0978 19.0853L44.4878 19.7331L28.8781 36.9831C28.3629 37.4289 27.7512 37.7825 27.0781 38.0238C26.4049 38.2651 25.6835 38.3892 24.9548 38.3892C24.2262 38.3892 23.5048 38.2651 22.8316 38.0238C22.1585 37.7825 21.5468 37.4289 21.0316 36.9831C20.5164 36.5372 20.1077 36.008 19.8289 35.4255C19.5501 34.843 19.4066 34.2187 19.4066 33.5882C19.4066 32.9578 19.5501 32.3335 19.8289 31.751C20.1077 31.1685 20.5164 30.6392 21.0316 30.1934L58.2261 4.79832ZM4.56236 12.5572C0.557428 18.1078 -0.883002 24.7605 0.528224 31.1891H2.77403V28.7899C2.74382 24.0659 4.37835 19.4462 7.45973 15.5466L4.56236 12.5572ZM30.5001 6.45985e-07C26.2599 -0.000812674 22.0664 0.766384 18.1895 2.25224C14.3126 3.7381 10.838 5.90971 7.9893 8.62738L11.1612 11.8998C14.925 8.90505 19.8418 7.2289 24.9548 7.19748C30.0955 7.22849 35.0371 8.9211 38.8095 11.943L48.6523 5.22057C43.411 1.83117 37.0433 -0.000185705 30.5001 6.45985e-07ZM49.4369 22.0723L48.7909 22.7608L46.7724 24.9921C47.0084 26.2478 47.1298 27.5177 47.1357 28.7899V31.1891H60.4719C61.7876 25.1849 60.6268 18.9716 57.1919 13.632L49.4369 22.0723Z" fill="#EA4335"/>
</svg>
