<svg width="33" height="32" viewBox="0 0 33 32" fill="none" xmlns="http://www.w3.org/2000/svg">
<path fill-rule="evenodd" clip-rule="evenodd" d="M31.5295 12.105H0.764444C0.395299 12.105 0.0957031 12.3833 0.0957031 12.727V30.4107C0.0957031 30.7545 0.395299 31.0331 0.764444 31.0331H31.5295C31.6175 31.033 31.7046 31.0168 31.7858 30.9855C31.8671 30.9542 31.9409 30.9083 32.003 30.8505C32.0651 30.7927 32.1144 30.7241 32.148 30.6487C32.1815 30.5732 32.1987 30.4924 32.1986 30.4107V12.727C32.1987 12.6454 32.1814 12.5646 32.1479 12.4892C32.1143 12.4137 32.065 12.3452 32.0029 12.2874C31.9408 12.2297 31.867 12.1838 31.7858 12.1525C31.7045 12.1212 31.6175 12.1051 31.5295 12.105Z" fill="#D35400"/>
<path fill-rule="evenodd" clip-rule="evenodd" d="M1.09766 4.96532V30.4059C1.09766 30.7524 1.39725 31.0332 1.7664 31.0332H30.5226C30.6108 31.0327 30.6981 31.0162 30.7795 30.9844C30.8608 30.9527 30.9347 30.9064 30.9967 30.8481C31.0588 30.7899 31.1079 30.7209 31.1412 30.6451C31.1745 30.5693 31.1915 30.4881 31.191 30.4062V0.626986C31.1915 0.545097 31.1745 0.463921 31.1412 0.388094C31.1079 0.312266 31.0588 0.243272 30.9967 0.185051C30.9347 0.12683 30.8608 0.0805213 30.7795 0.0487702C30.6981 0.0170191 30.6108 0.000446924 30.5226 0L6.44892 0.00248188L1.09766 4.96532Z" fill="#ECF0F1"/>
<path opacity="0.1" d="M12.8008 22.3462L31.1901 12.1084L31.1911 14.2738L16.4882 22.3462H12.8008Z" fill="black"/>
<path fill-rule="evenodd" clip-rule="evenodd" d="M0.09375 30.4095C0.09375 30.7538 0.393011 31.0327 0.76249 31.0327H31.5245C31.8937 31.0327 32.1933 30.7538 32.1933 30.4095V13.0391L16.1435 22.0359L0.09375 13.0391V30.4095Z" fill="#F39C12"/>
<path fill-rule="evenodd" clip-rule="evenodd" d="M1.09766 4.96498L6.44791 4.96808V0.00927734L1.09766 4.96498Z" fill="#F1C40F"/>
<path d="M0.09375 13.0391L0.111137 29.7918L16.1435 22.0359L0.09375 13.0391Z" fill="#F1C40F"/>
<path d="M32.1933 13.0391L16.1436 22.0359L32.1933 29.7918V13.0391Z" fill="#E57E22"/>
<path opacity="0.3" fill-rule="evenodd" clip-rule="evenodd" d="M32.1933 30.4102V29.7925L16.1435 22.0366L31.9686 30.8728C32.1053 30.7589 32.1933 30.5948 32.1933 30.4102ZM0.09375 30.4102V29.7925L16.1435 22.0366L0.318447 30.8728C0.247947 30.8147 0.191478 30.7435 0.152752 30.6638C0.114026 30.5841 0.0939184 30.4976 0.09375 30.4102Z" fill="black"/>
</svg>
