<svg width="28" height="27" viewBox="0 0 28 27" fill="none" xmlns="http://www.w3.org/2000/svg">
<path d="M6.70681 26.017V12.7049L3.54564 8.92797L0.710938 6.83203V23.6678C0.710938 24.9676 1.51733 26.017 2.50974 26.017H6.70681Z" fill="#4285F4"/>
<path d="M21.0977 26.0173H25.2947C26.2901 26.0173 27.0935 24.9641 27.0935 23.6681V6.83252L23.8828 9.23316L21.0977 12.7053V26.0173Z" fill="#34A853"/>
<path d="M6.70749 12.7051L6.27734 7.50366L6.70749 2.52539L13.9025 9.57295L21.0975 2.52539L21.5788 7.23489L21.0975 12.7051L13.9025 19.7526L6.70749 12.7051Z" fill="#EA4335"/>
<path d="M21.0977 2.52522V12.7049L27.0935 6.83203V3.69977C27.0935 0.794687 24.5543 -0.861416 22.7766 0.880823L21.0977 2.52522Z" fill="#FBBC04"/>
<path d="M0.710938 6.83209L3.46855 9.53327L6.70681 12.705V2.52528L5.02786 0.880885C3.24709 -0.861489 0.710938 0.794749 0.710938 3.69969V6.83196V6.83209Z" fill="#C5221F"/>
</svg>
