<svg width="68" height="69" viewBox="0 0 68 69" fill="none" xmlns="http://www.w3.org/2000/svg">
<rect width="68" height="69" rx="30" fill="#100101"/>
<path d="M32.1747 55.9626C31.8631 55.9626 31.5643 55.7415 31.3441 55.3481C31.1238 54.9546 31 54.4209 31 53.8645V32.8832C31 28.6869 32.1747 25.0152 33.3494 24.4906V15.0491C33.3494 14.7708 33.4112 14.504 33.5214 14.3073C33.6315 14.1105 33.7809 14 33.9367 14H35.1114C35.2671 14 35.4165 14.1105 35.5267 14.3073C35.6368 14.504 35.6987 14.7708 35.6987 15.0491V24.4906C36.8734 25.0152 38.0481 28.6869 38.0481 32.8832V53.8645C38.0481 54.4209 37.9243 54.9546 37.704 55.3481C37.4837 55.7415 37.1849 55.9626 36.8734 55.9626H32.1747Z" fill="url(#paint0_linear_104_16)"/>
<defs>
<linearGradient id="paint0_linear_104_16" x1="34.524" y1="14" x2="34.524" y2="55.9626" gradientUnits="userSpaceOnUse">
<stop offset="0.6875" stop-color="white"/>
<stop offset="1" stop-color="#690E0E" stop-opacity="0"/>
</linearGradient>
</defs>
</svg>
