<svg width="57" height="54" viewBox="0 0 57 54" fill="none" xmlns="http://www.w3.org/2000/svg">
<path d="M0 0H57V53.9089H0V0Z" fill="#F5DE19"/>
<path d="M38.4299 40.3431C38.9156 41.2761 39.6701 42.0603 40.6066 42.6053C41.543 43.1503 42.6233 43.434 43.7228 43.4236C45.9417 43.4236 47.3606 42.3743 47.3606 40.9207C47.3606 39.1879 45.903 38.5679 43.4602 37.5571L42.1207 37.0142C38.2528 35.4566 35.6878 33.5063 35.6878 29.3823C35.6878 25.5836 38.7414 22.6899 43.5314 22.6899C45.082 22.584 46.6313 22.9122 47.986 23.6336C49.3406 24.355 50.4407 25.4376 51.149 26.7465L46.9616 29.2783C46.6888 28.6293 46.2139 28.0741 45.5999 27.6862C44.9858 27.2983 44.2616 27.0962 43.5233 27.1065C43.2011 27.076 42.8758 27.1093 42.5681 27.2043C42.2603 27.2993 41.9768 27.4539 41.7357 27.6582C41.4946 27.8625 41.3011 28.1121 41.1676 28.391C41.0341 28.6699 40.9635 28.9721 40.9603 29.2783C40.9603 30.7974 41.9558 31.4135 44.2541 32.3588L45.5936 32.9017C50.1454 34.7481 52.7186 36.6291 52.7186 40.8591C52.7186 45.4201 48.9301 47.9192 43.8429 47.9192C41.8607 48.0386 39.8843 47.613 38.1523 46.6937C36.4202 45.7743 35.0065 44.4006 34.0816 42.7382L38.4299 40.3431ZM19.508 40.782C20.3487 42.1933 21.1141 43.387 22.9544 43.387C24.7133 43.387 25.8248 42.7362 25.8248 40.2045V22.9787H31.1807V40.2718C31.1807 45.5164 27.9236 47.9038 23.1824 47.9038C21.5065 47.9904 19.8421 47.5954 18.408 46.7707C16.9739 45.946 15.8373 44.7301 15.1475 43.283L19.508 40.782Z" fill="black"/>
</svg>
