<svg width="100" height="91" viewBox="0 0 100 91" fill="none" xmlns="http://www.w3.org/2000/svg">
<g filter="url(#filter0_f_90_1860)">
<path d="M87 69.2268C87 74.0609 70.437 78.0001 50.0002 78.0001C29.5634 78.0001 13 74.0866 13 69.2268C13 64.3923 29.5634 60.4531 49.9998 60.4531C70.437 60.4531 86.9714 64.3923 87 69.2268Z" fill="black" fill-opacity="0.2"/>
</g>
<path d="M29.7373 59.788C26.1528 55.2349 25.459 40.3994 33.8128 31.2675C37.9465 26.894 39.0162 23.8501 39.3341 19.7317C39.5652 15.0507 35.6052 1.11053 50.5206 0.061792C65.6388 -1.01257 64.8005 12.1859 64.7136 19.1691C64.656 25.052 69.5991 28.4029 73.0098 33.0073C79.2825 41.4482 78.7622 55.9767 71.8246 63.8551C63.0371 73.7029 55.5216 69.4311 50.5206 69.7893C41.1551 70.2754 40.8372 74.675 29.7373 59.788Z" fill="black"/>
<path d="M66.2168 33.8769C68.8185 36 75.5537 45.4896 64.8872 51.4241C61.1296 53.4959 68.2406 61.3741 71.6513 57.563C77.693 50.7079 73.8485 39.7601 70.2061 35.8465C67.7779 33.0842 64.0203 32.0098 66.2172 33.8772L66.2168 33.8769Z" fill="url(#paint0_linear_90_1860)"/>
<path d="M65.4943 32.5977C69.7722 35.6673 77.548 46.41 66.188 53.4185C62.4591 55.5928 69.4832 62.4735 73.4435 58.9691C87.1738 46.7426 73.0966 32.6999 68.2401 27.8654C63.9043 23.6452 60.0598 28.8376 65.4943 32.5977Z" fill="black" stroke="black" stroke-width="0.977"/>
<path d="M59.3368 6.7377C59.1923 10.2421 54.8275 13.2863 49.5955 13.5677C44.3634 13.849 40.2589 11.1889 40.4031 7.68448C40.5479 4.18008 44.9127 1.13613 50.1447 0.854793C55.3765 0.599087 59.4813 3.23358 59.3368 6.7377Z" fill="url(#paint1_linear_90_1860)"/>
<path d="M46.8206 15.0763C46.9654 17.3529 45.7513 19.2712 44.0747 19.3478C42.3982 19.4247 40.9237 17.6598 40.7792 15.3833C40.6348 13.1067 41.8489 11.1884 43.5254 11.1118C45.202 11.0349 46.6764 12.7998 46.8206 15.0763Z" fill="url(#paint2_linear_90_1860)"/>
<path d="M49.8555 15.2553C49.9134 17.8898 51.8503 19.9873 54.1627 19.9364C56.4751 19.8851 58.2961 17.7107 58.2385 15.0506C58.1806 12.416 56.244 10.3186 53.9313 10.3698C51.6189 10.4208 49.7689 12.6205 49.8555 15.2553Z" fill="url(#paint3_linear_90_1860)"/>
<path d="M51.7634 15.844C51.7345 17.3019 52.5441 18.4784 53.6134 18.4784C54.6541 18.4784 55.5503 17.3019 55.5793 15.8696C55.6079 14.4117 54.7986 13.2349 53.729 13.2349C52.6596 13.2349 51.7924 14.4117 51.7634 15.844Z" fill="black"/>
<path d="M45.0858 15.8692C45.2303 17.0714 44.71 18.0945 43.9583 18.1967C43.2069 18.2736 42.4841 17.3783 42.3397 16.1761C42.1949 14.9739 42.7155 13.9505 43.4669 13.8483C44.2186 13.7717 44.9413 14.667 45.0858 15.8692Z" fill="black"/>
<path d="M52.1966 15.0253C52.1098 15.8439 52.5435 16.5088 53.1504 16.5601C53.7573 16.6113 54.3356 15.9718 54.4221 15.1788C54.509 14.3604 54.0753 13.6952 53.4684 13.644C52.8615 13.593 52.2832 14.2325 52.1966 15.0256V15.0253Z" fill="url(#paint4_linear_90_1860)"/>
<path d="M44.4496 15.23C44.5364 15.8952 44.2185 16.4835 43.7561 16.5345C43.2934 16.5857 42.8599 16.074 42.773 15.3835C42.6865 14.7183 43.0044 14.13 43.4668 14.0791C43.9295 14.0278 44.363 14.5649 44.4496 15.23Z" fill="url(#paint5_linear_90_1860)"/>
<path d="M35.3446 40.3484C37.397 36.2301 41.7618 28.9914 41.8487 23.3896C41.8487 18.9389 56.9089 17.8646 58.1231 22.3155C59.3369 26.7661 62.401 33.4164 64.3665 36.6395C66.3323 39.8367 72.0268 50.0427 65.9565 58.9439C60.4931 66.8224 43.93 73.0635 35.0846 57.8698C32.0784 52.6006 32.6273 46.0781 35.3446 40.3484Z" fill="url(#paint6_linear_90_1860)"/>
<path d="M33.4945 37.2786C31.7314 40.22 28.089 47.945 36.9924 52.1656C46.5602 56.6674 46.5313 65.9013 35.0265 61.5016C24.5049 57.5371 29.1586 41.4735 32.1072 37.6368C34.0148 34.951 36.9055 31.6514 33.4945 37.2786Z" fill="url(#paint7_linear_90_1860)"/>
<path d="M34.9977 33.9534C32.1939 37.9949 25.4877 47.5101 34.4776 52.4724C46.5603 59.0461 43.1493 65.5942 32.1073 59.6854C16.5557 51.4493 30.228 34.8231 36.4431 28.4797C43.5541 21.3687 37.8018 29.7841 34.9977 33.9532V33.9534Z" fill="black" stroke="black" stroke-width="1.25"/>
<path d="M62.2275 41.9085C62.2275 46.4104 57.3423 52.2426 48.9593 52.1914C40.3165 52.2423 36.6455 46.4104 36.6455 41.9085C36.6455 37.4069 42.3689 33.749 49.422 33.749C56.504 33.7746 62.2275 37.4069 62.2275 41.9085Z" fill="url(#paint8_linear_90_1860)"/>
<path d="M57.6609 27.7635C57.5741 32.4189 54.1341 33.5189 49.7982 33.5189C45.4621 33.5189 42.3114 32.8281 41.9355 27.7635C41.9355 24.5917 45.4621 22.7503 49.7982 22.7503C54.1341 22.7246 57.6606 24.5664 57.6606 27.7635H57.6609Z" fill="url(#paint9_linear_90_1860)"/>
<path d="M31.442 34.9251C34.275 31.114 40.2585 25.2565 32.5695 35.7438C26.3258 44.3893 30.2571 49.94 32.2805 51.4745C38.1195 56.0789 37.8881 59.1736 33.2923 56.7438C23.4351 51.5514 25.4875 42.8033 31.442 34.9251Z" fill="url(#paint10_linear_90_1860)"/>
<path d="M72.4603 36.4859C70.0031 32.0096 62.1983 20.6527 72.8358 33.8511C82.5195 45.7964 75.7265 54.1096 74.5123 54.928C73.2985 55.7466 69.2227 57.4093 70.4075 54.5188C71.622 51.6283 77.6344 46.1546 72.4599 36.4856L72.4603 36.4859Z" fill="url(#paint11_linear_90_1860)"/>
<path d="M29.3028 71.7845C22.8276 68.7406 13.4332 72.3728 16.8442 64.1365C17.538 62.2691 15.8325 59.4555 16.9308 57.6394C18.2318 55.4141 21.0356 55.9002 22.7121 54.4166C24.3597 52.8818 25.4004 50.2217 28.4935 50.6312C31.5576 51.0401 33.61 54.3654 35.7489 58.4581C37.3386 61.3739 42.9465 65.4922 42.571 68.7662C42.1082 73.7795 35.6621 74.726 29.3028 71.7845Z" fill="url(#paint12_linear_90_1860)" stroke="#E68C3F" stroke-width="6.25"/>
<path d="M76.4489 52.4467C75.4661 54.0837 71.3613 56.7182 68.6151 56.0277C65.8403 55.3625 64.5682 51.628 65.1175 48.7888C65.6379 45.6172 68.6151 45.4378 72.3734 47.0239C76.4199 48.7888 77.634 50.2723 76.4489 52.4467Z" fill="url(#paint13_linear_90_1860)"/>
<path d="M74.1944 70.3773C78.935 65.2874 89.486 66.3362 82.375 59.3533C80.8719 57.8441 81.3343 54.621 79.4843 53.24C77.3164 51.5517 74.9171 52.933 72.7202 52.0634C70.5233 51.1169 68.2109 49.3008 65.5227 50.5796C62.8344 51.8843 62.5451 55.2606 62.2851 59.7112C62.0537 62.9086 58.7585 68.2545 60.5217 71.196C63.0654 75.7491 69.6851 75.1352 74.1944 70.3776V70.3773Z" fill="url(#paint14_linear_90_1860)" stroke="#E68C3F" stroke-width="6.251"/>
<path d="M72.1424 63.5735C79.4848 53.9817 74.0217 54.0583 72.1714 53.3166C70.3214 52.5492 68.3845 51.04 66.2169 52.0887C64.0487 53.1631 63.9332 55.9257 63.8752 59.5577C63.7887 62.1669 61.3318 66.5409 62.8059 68.9707C64.598 71.8099 68.9338 67.6919 72.1424 63.5735Z" fill="url(#paint15_linear_90_1860)"/>
<path d="M27.8004 64.9548C16.8159 58.6625 21.9611 56.5141 23.609 55.5163C25.6035 54.2375 25.6324 51.7818 28.0893 52.0122C30.5466 52.2423 31.9917 54.928 33.6393 58.2533C34.8535 60.6321 39.0738 63.8039 38.7558 66.5409C38.3513 69.7636 32.541 67.6406 27.8004 64.9548Z" fill="url(#paint16_linear_90_1860)"/>
<path d="M75.8135 52.3701C74.9463 53.7004 71.4197 55.7979 69.0783 55.235C66.679 54.6979 65.5804 51.7052 66.0721 49.4542C66.5056 46.8963 69.0783 46.7685 72.3156 48.0476C75.7556 49.4286 76.8252 50.6052 75.8135 52.3701Z" fill="black"/>
<path d="M73.4435 51.628C72.8942 52.5489 70.5818 54.0068 68.9629 53.6232C67.3443 53.2397 66.535 51.1678 66.795 49.6073C67.0263 47.8424 68.7605 47.7399 70.9574 48.6098C73.3277 49.582 74.0794 50.4004 73.4435 51.628Z" fill="url(#paint17_linear_90_1860)"/>
<path d="M43.5542 18.248C44.7105 17.3015 47.5142 14.4113 52.8332 17.4293C53.8159 17.992 54.6252 18.0433 56.5042 18.7594C60.2911 20.141 58.4987 23.466 54.4518 24.5914C52.7173 25.0774 51.1566 26.9448 48.0346 26.7657C45.3463 26.6376 44.6525 25.0777 43.0049 24.2334C40.0853 22.7755 39.6519 20.8059 41.2415 19.7572C42.8315 18.7084 43.4387 18.3246 43.5542 18.248Z" fill="url(#paint18_linear_90_1860)" stroke="#E68C3F" stroke-width="3.75"/>
<path d="M56.5622 20.9341C54.9726 21.0107 51.5323 24.0547 47.9192 24.0547C44.3058 24.0547 42.1379 21.0876 41.5889 21.0876" stroke="#E68C3F" stroke-width="2.5"/>
<path d="M45.3459 17.9923C45.9242 17.5319 47.7452 16.2784 50.1445 17.5572C50.6648 17.8132 51.1852 18.0946 51.9366 18.4781C53.4686 19.2712 52.7172 20.4224 50.8669 21.1383C50.0287 21.4452 48.6414 22.1104 47.6007 22.0592C46.4445 21.9569 45.6639 21.2918 44.9125 20.8569C43.4959 20.0386 43.5828 19.3478 44.2476 18.8107C44.7387 18.4012 45.288 18.0177 45.3462 17.9923H45.3459Z" fill="url(#paint19_linear_90_1860)"/>
<defs>
<filter id="filter0_f_90_1860" x="0" y="47.4531" width="100" height="43.5469" filterUnits="userSpaceOnUse" color-interpolation-filters="sRGB">
<feFlood flood-opacity="0" result="BackgroundImageFix"/>
<feBlend mode="normal" in="SourceGraphic" in2="BackgroundImageFix" result="shape"/>
<feGaussianBlur stdDeviation="6.5" result="effect1_foregroundBlur_90_1860"/>
</filter>
<linearGradient id="paint0_linear_90_1860" x1="69.1555" y1="62.507" x2="70.6435" y2="43.6473" gradientUnits="userSpaceOnUse">
<stop stop-color="#FFEED7"/>
<stop offset="1" stop-color="#BDBFC2"/>
</linearGradient>
<linearGradient id="paint1_linear_90_1860" x1="50.7047" y1="1.14417" x2="49.9948" y2="12.4355" gradientUnits="userSpaceOnUse">
<stop stop-color="white" stop-opacity="0.8"/>
<stop offset="1" stop-color="white" stop-opacity="0"/>
</linearGradient>
<linearGradient id="paint2_linear_90_1860" x1="43.9127" y1="18.3818" x2="43.4755" y2="11.9262" gradientUnits="userSpaceOnUse">
<stop stop-color="#FFEED7"/>
<stop offset="1" stop-color="#BDBFC2"/>
</linearGradient>
<linearGradient id="paint3_linear_90_1860" x1="54.0399" y1="18.5489" x2="54.0398" y2="11.6904" gradientUnits="userSpaceOnUse">
<stop stop-color="#FFEED7"/>
<stop offset="1" stop-color="#BDBFC2"/>
</linearGradient>
<linearGradient id="paint4_linear_90_1860" x1="53.3971" y1="13.7317" x2="53.0969" y2="16.3708" gradientUnits="userSpaceOnUse">
<stop stop-color="white" stop-opacity="0.65"/>
<stop offset="1" stop-color="white" stop-opacity="0"/>
</linearGradient>
<linearGradient id="paint5_linear_90_1860" x1="43.5362" y1="14.2105" x2="43.8602" y2="16.3533" gradientUnits="userSpaceOnUse">
<stop stop-color="white" stop-opacity="0.65"/>
<stop offset="1" stop-color="white" stop-opacity="0"/>
</linearGradient>
<linearGradient id="paint6_linear_90_1860" x1="50.8628" y1="62.3204" x2="50.8628" y2="38.8469" gradientUnits="userSpaceOnUse">
<stop stop-color="#FFEED7"/>
<stop offset="1" stop-color="#BDBFC2"/>
</linearGradient>
<linearGradient id="paint7_linear_90_1860" x1="36.7532" y1="62.6528" x2="31.3587" y2="41.8702" gradientUnits="userSpaceOnUse">
<stop stop-color="#FFEED7"/>
<stop offset="1" stop-color="#BDBFC2"/>
</linearGradient>
<linearGradient id="paint8_linear_90_1860" x1="49.3958" y1="36.1888" x2="49.449" y2="51.2094" gradientUnits="userSpaceOnUse">
<stop stop-color="white" stop-opacity="0.8"/>
<stop offset="1" stop-color="white" stop-opacity="0"/>
</linearGradient>
<linearGradient id="paint9_linear_90_1860" x1="49.7868" y1="26.7697" x2="49.8458" y2="32.7422" gradientUnits="userSpaceOnUse">
<stop stop-color="white" stop-opacity="0.65"/>
<stop offset="1" stop-color="white" stop-opacity="0"/>
</linearGradient>
<linearGradient id="paint10_linear_90_1860" x1="31.5585" y1="30.4555" x2="31.5585" y2="52.3731" gradientUnits="userSpaceOnUse">
<stop stop-color="white" stop-opacity="0.65"/>
<stop offset="1" stop-color="white" stop-opacity="0"/>
</linearGradient>
<linearGradient id="paint11_linear_90_1860" x1="72.6582" y1="28.3151" x2="72.6513" y2="48.1187" gradientUnits="userSpaceOnUse">
<stop stop-color="white" stop-opacity="0.65"/>
<stop offset="1" stop-color="white" stop-opacity="0"/>
</linearGradient>
<linearGradient id="paint12_linear_90_1860" x1="30.2722" y1="61.7698" x2="27.3475" y2="73.2438" gradientUnits="userSpaceOnUse">
<stop stop-color="#FFA63F"/>
<stop offset="1" stop-color="#FFFF00"/>
</linearGradient>
<linearGradient id="paint13_linear_90_1860" x1="71.219" y1="60.4821" x2="70.8081" y2="39.5202" gradientUnits="userSpaceOnUse">
<stop stop-color="#FFEED7"/>
<stop offset="1" stop-color="#BDBFC2"/>
</linearGradient>
<linearGradient id="paint14_linear_90_1860" x1="67.5775" y1="58.359" x2="76.018" y2="71.8723" gradientUnits="userSpaceOnUse">
<stop stop-color="#FFA63F"/>
<stop offset="1" stop-color="#FFFF00"/>
</linearGradient>
<linearGradient id="paint15_linear_90_1860" x1="70.3963" y1="48.6001" x2="67.6963" y2="63.5366" gradientUnits="userSpaceOnUse">
<stop stop-color="white" stop-opacity="0.65"/>
<stop offset="1" stop-color="white" stop-opacity="0"/>
</linearGradient>
<linearGradient id="paint16_linear_90_1860" x1="29.4695" y1="52.2501" x2="29.9986" y2="68.8671" gradientUnits="userSpaceOnUse">
<stop stop-color="white" stop-opacity="0.65"/>
<stop offset="1" stop-color="white" stop-opacity="0"/>
</linearGradient>
<linearGradient id="paint17_linear_90_1860" x1="69.7574" y1="48.3309" x2="70.3797" y2="53.3231" gradientUnits="userSpaceOnUse">
<stop stop-color="white" stop-opacity="0.65"/>
<stop offset="1" stop-color="white" stop-opacity="0"/>
</linearGradient>
<linearGradient id="paint18_linear_90_1860" x1="49.4102" y1="17.9715" x2="49.4618" y2="26.7126" gradientUnits="userSpaceOnUse">
<stop stop-color="#FFA63F"/>
<stop offset="1" stop-color="#FFFF00"/>
</linearGradient>
<linearGradient id="paint19_linear_90_1860" x1="48.287" y1="17.1449" x2="48.273" y2="21.7668" gradientUnits="userSpaceOnUse">
<stop stop-color="white" stop-opacity="0.65"/>
<stop offset="1" stop-color="white" stop-opacity="0"/>
</linearGradient>
</defs>
</svg>
