<svg width="15" height="12" viewBox="0 0 15 12" fill="none" xmlns="http://www.w3.org/2000/svg">
<path d="M6.77482 1.5375C6.80746 1.5375 6.84825 1.55156 6.88361 1.59375C6.72586 1.39922 7.06039 1.48359 7.07943 1.29844C7.26981 1.17656 7.20181 1.09687 7.25621 1.09219L7.31604 1.05C7.19909 1.0875 7.1583 1.09453 7.12566 1.09453H7.07127C7.03047 1.09453 6.96248 1.10156 6.80202 1.14375C6.43486 1.16719 6.17104 1.50938 6.04594 1.51875C5.91811 1.57734 5.92355 1.58906 5.95347 1.58906C5.96163 1.58906 5.9725 1.58672 5.98338 1.58672C5.99426 1.58672 6.00242 1.58437 6.01058 1.58437C6.0405 1.58437 6.03234 1.59609 5.85828 1.66641C5.89907 1.67578 5.55367 1.80703 5.55095 2.01328C5.54007 2.09297 5.57815 2.14687 5.6407 2.14687C5.69509 2.14687 5.76309 2.11172 5.83652 2.02266C6.08129 1.77891 6.59804 1.75547 6.82105 1.60781C6.68235 1.59844 6.70955 1.5375 6.77482 1.5375ZM5.53191 1.61953C5.50743 1.61953 5.54007 1.59375 5.57543 1.56797C5.6135 1.54219 5.65702 1.51641 5.65702 1.51641L5.6543 1.51875C5.80116 1.46953 5.71141 1.45781 5.79028 1.425H5.78484C5.76853 1.425 5.79844 1.40625 5.82564 1.38516C5.85284 1.36641 5.87731 1.34531 5.85284 1.34531C5.83924 1.34531 5.80388 1.35234 5.74405 1.37344C5.76309 1.35 5.83652 1.33359 5.93987 1.28437C5.79028 1.32656 5.67334 1.35234 5.65974 1.35234C5.64886 1.35234 5.71141 1.33359 5.89907 1.28437C5.90723 1.28437 5.91539 1.28672 5.92083 1.28672C5.93987 1.28672 5.94803 1.28203 5.94531 1.27734C5.94259 1.27266 5.93171 1.27031 5.91267 1.27031C5.64342 1.28906 5.44216 1.43438 5.50199 1.45312C5.53735 1.44375 5.56183 1.43906 5.57815 1.43906C5.6135 1.43906 5.59718 1.46484 5.52647 1.50234C5.55911 1.56797 4.98253 1.73672 4.91726 1.79766C4.94989 1.78125 4.97165 1.77656 4.98253 1.77656C5.02605 1.77656 4.96893 1.84922 4.91182 1.88438C4.94717 1.9125 4.97437 1.92188 4.99613 1.92188C5.05324 1.92188 5.07772 1.85391 5.12667 1.83281C5.13755 1.85156 5.14843 1.86094 5.16203 1.86094C5.20827 1.86094 5.26538 1.7625 5.31161 1.71094C5.32521 1.72266 5.34153 1.73203 5.36329 1.73203C5.4068 1.73203 5.47208 1.70156 5.57543 1.61484C5.55367 1.61719 5.53735 1.61953 5.53191 1.61953ZM4.90638 2.05078C4.80847 2.10234 4.75679 2.12344 4.73504 2.12344C4.69424 2.12344 4.74864 2.05781 4.79759 1.98984C4.84654 1.92422 4.89006 1.85859 4.82751 1.85859C4.79759 1.85859 4.7432 1.87266 4.65616 1.91016C4.41955 2.04609 4.01975 2.42109 3.84297 2.42109H3.82665C4.11222 2.24063 4.02791 1.88672 4.42771 1.79531C4.82207 1.60078 5.09132 1.66172 5.44216 1.43906C5.33881 1.48359 5.18651 1.53281 5.15115 1.53281C5.12939 1.53281 5.16203 1.50938 5.30346 1.45078C5.28986 1.45312 5.27898 1.45547 5.27082 1.45547C5.17563 1.45547 5.89635 1.23281 5.93171 1.22813C5.63526 1.26328 5.15659 1.47656 5.09132 1.47656C5.08316 1.47656 5.08316 1.47422 5.08316 1.46953C5.09404 1.4625 5.09404 1.45781 5.08316 1.45781C5.0478 1.45781 4.90094 1.5 4.75135 1.54219C4.60449 1.58438 4.45491 1.62891 4.42227 1.62891C4.41139 1.62891 4.41139 1.62422 4.42771 1.61484C3.14401 2.24297 2.07244 3.30234 1.73792 4.55859C1.87662 4.83281 1.78143 5.35547 2.00989 5.50781C2.27098 5.69766 1.78687 6.24844 1.9147 6.58828C2.04524 7.20234 2.60822 7.62187 2.66806 8.25C2.77141 8.68125 3.14945 9.20859 3.30719 9.48281C3.42686 9.58594 3.75594 9.88359 3.81305 9.88359C3.83481 9.88359 3.82121 9.83906 3.73418 9.71953C3.67979 9.58594 3.3643 9.23672 3.51661 9.23672C3.52477 9.23672 3.53292 9.23672 3.5438 9.23906C3.35614 9.075 3.95992 9.11953 3.53836 8.89688C3.48941 8.84531 3.47853 8.82891 3.48941 8.82891C3.50301 8.82891 3.54108 8.84766 3.5846 8.86641C3.63083 8.88516 3.68523 8.90391 3.72874 8.90391C3.79674 8.90391 3.84297 8.86406 3.81577 8.71875C3.82665 8.72344 3.83753 8.72344 3.84569 8.72344C3.9164 8.72344 3.89193 8.60391 3.89737 8.48438C3.90281 8.36484 3.93816 8.24531 4.12854 8.24531C4.1503 8.24531 4.17478 8.24766 4.19925 8.25C4.63985 8.04375 4.25637 7.47422 4.76223 7.26562C4.7432 6.79219 4.00615 6.76875 3.72874 6.57656C3.68251 6.6 3.63899 6.60703 3.59548 6.60703C3.54652 6.60703 3.50301 6.59766 3.46493 6.58594C3.42686 6.57656 3.3915 6.56484 3.36702 6.56484C3.36158 6.56484 3.35614 6.56484 3.3507 6.56719C3.82393 6.45938 3.47853 5.89219 3.08689 5.89219H3.0597C3.02978 5.64609 2.88291 5.73984 2.8666 5.53594C2.84212 5.54766 2.81764 5.55234 2.79316 5.55234C2.72789 5.55234 2.66806 5.5125 2.61638 5.475C2.56471 5.43516 2.52119 5.39766 2.48312 5.39766C2.4532 5.39766 2.426 5.42344 2.40153 5.49844C2.42872 5.38359 2.42056 5.34609 2.39337 5.34609C2.36617 5.34609 2.31721 5.38594 2.26282 5.42578C2.21115 5.46562 2.15131 5.50547 2.10508 5.50547H2.09148C1.77327 5.31094 2.0942 4.96641 1.92558 4.70156C2.03436 4.60078 2.07788 4.42969 2.02893 4.42969C2.00445 4.42969 1.95549 4.47187 1.87934 4.58672C1.77055 4.34766 2.05884 3.80625 2.30362 3.77578C2.31178 3.77578 2.31721 3.77344 2.32537 3.77344C2.36889 3.77344 2.4124 3.79219 2.45048 3.83203C2.47224 3.94219 2.41784 4.17422 2.4396 4.17422C2.45048 4.17422 2.47224 4.12734 2.52663 4.00547C2.59734 3.72656 3.09233 3.525 3.14401 3.35391C3.14673 3.35625 3.14673 3.35625 3.14945 3.35625C3.20656 3.35625 3.57372 3.07734 3.73418 3.04688C3.79674 2.99297 3.84025 2.97422 3.87289 2.97422C3.90824 2.97422 3.92728 2.99766 3.94088 3.01875C3.95448 3.04219 3.96536 3.06328 3.97896 3.06328C3.98984 3.06328 4.00343 3.04922 4.02791 3.00937C3.9436 2.86641 4.16118 2.73047 4.10134 2.73047C4.07959 2.73047 4.01431 2.74922 3.88105 2.79609C3.85929 2.80547 3.84841 2.80781 3.84297 2.80781C3.82665 2.80781 3.89193 2.77031 3.98712 2.73281C4.08231 2.69531 4.20197 2.65781 4.3026 2.65781C4.35156 2.65781 4.39507 2.66719 4.42771 2.69063C4.84926 2.60391 4.61809 2.48438 4.63985 2.48438H4.64529C4.76495 2.42344 4.7296 2.19375 4.90638 2.05078ZM3.02162 3.00937C3.01618 3.00937 3.04066 2.97891 3.12225 2.89219C3.29087 2.78437 3.42686 2.71172 3.27183 2.64141C3.33983 2.61562 3.4051 2.58516 3.46765 2.55234C3.46493 2.66719 3.35342 2.94609 3.29359 2.94609C3.27999 2.94609 3.26639 2.92969 3.26095 2.89453C3.29631 2.84063 3.29903 2.81953 3.28543 2.81953C3.26367 2.81953 3.20112 2.86641 3.14129 2.91563C3.08145 2.96016 3.02706 3.00937 3.02162 3.00937ZM3.17664 3.07266C3.10321 3.07266 3.11681 3.03281 3.34255 2.99297C3.44045 2.98125 3.3643 2.98594 3.48125 2.9625C3.36702 3.04219 3.2392 3.07266 3.17664 3.07266ZM7.40579 2.83594C7.43843 2.83125 7.4629 2.83125 7.48194 2.83125C7.56081 2.83125 7.52546 2.85938 7.47922 2.8875C7.43299 2.91562 7.37587 2.94375 7.40851 2.94375C7.42755 2.94375 7.47922 2.93438 7.58529 2.90859C8.12108 2.87578 7.37587 2.48438 7.49554 2.35313L7.46291 2.34375C7.24261 2.58516 7.60977 2.58984 7.40579 2.83594ZM7.18278 2.84531C7.22085 2.84531 7.26981 2.80781 7.32148 2.70234C7.39219 2.62969 7.36228 2.62031 7.28612 2.58516C7.07671 2.63203 7.09574 2.84531 7.18278 2.84531ZM9.05937 3.58828C9.05122 3.58828 9.04578 3.59063 9.04034 3.59297C9.06209 3.59766 9.08385 3.60234 9.10561 3.60234C9.08385 3.59297 9.07025 3.58828 9.05937 3.58828ZM12.7119 4.17188C12.7582 4.25859 12.7827 4.29375 12.7854 4.29375C12.8044 4.29375 12.4427 3.53437 12.2931 3.39844C11.5126 2.29219 10.2289 1.44609 8.76565 1.12969H8.76293C8.72485 1.12969 8.76837 1.14609 8.82004 1.1625C8.87172 1.17891 8.93427 1.19531 8.93427 1.19531C8.93427 1.19531 8.89347 1.18359 8.76837 1.15313C8.62966 1.11797 8.48824 1.09219 8.34409 1.08281C8.31961 1.08984 8.93971 1.30078 9.35582 1.41094C9.21712 1.37344 9.07297 1.34063 9.03762 1.34063C9.01314 1.34063 9.03762 1.35469 9.13825 1.39219C9.01586 1.36172 8.96419 1.34766 8.95875 1.34766C8.95059 1.34766 9.12193 1.39688 9.28239 1.44609C9.44557 1.49531 9.6006 1.54453 9.55708 1.54453C9.5462 1.54453 9.51629 1.53984 9.47005 1.53281C9.60876 1.59844 9.65771 1.62422 9.64955 1.62422C9.63595 1.62422 9.46461 1.55391 9.28783 1.48359C9.11377 1.41328 8.93699 1.34297 8.91251 1.34297C8.89891 1.34297 8.93427 1.36641 9.05394 1.42734C9.21712 1.48828 9.3803 1.54922 9.33407 1.54922C9.31231 1.54922 9.24975 1.5375 9.12737 1.50703C9.39934 1.62656 8.93427 1.57969 9.09201 1.74141C9.00498 1.67109 8.96963 1.64766 8.96147 1.64766C8.95331 1.64766 8.97506 1.67578 8.99682 1.70391C9.01858 1.73203 9.0349 1.76016 9.01586 1.76016H9.01042C9.2008 1.93828 8.87715 1.77891 9.10833 1.93828C8.93427 1.87031 8.63782 1.75781 8.77109 1.75781C8.80372 1.75781 8.86628 1.76484 8.96418 1.78359C8.7874 1.60547 8.28698 1.59844 8.2761 1.57734C8.15099 1.58438 8.14827 1.66641 8.17003 1.81641C8.16731 2.05312 7.89806 2.05781 7.93341 2.19375C7.93341 2.19141 7.93613 2.19141 7.93613 2.19141C7.94157 2.19141 7.94429 2.23828 7.96061 2.2875C7.97965 2.33437 8.01229 2.38359 8.083 2.38359C8.12108 2.38359 8.17003 2.36953 8.22986 2.33437C8.31417 2.46563 8.39033 2.5125 8.45016 2.5125C8.53991 2.5125 8.59431 2.40703 8.58887 2.31094C8.49096 2.26406 8.36313 1.875 8.50455 1.875C8.52631 1.875 8.55351 1.88438 8.58887 1.90547C8.36857 2.37188 9.45917 2.06016 8.8418 2.27344C8.9805 2.43047 8.75477 2.42344 8.82004 2.61328C8.71397 2.63906 8.59702 2.6625 8.49368 2.6625C8.34137 2.6625 8.22442 2.60625 8.23802 2.40938C8.04764 2.49609 8.4284 2.78906 8.05036 2.78906H8.0286C7.84638 3.07734 7.16374 2.97891 7.69952 3.28359C7.72944 3.41719 7.63153 3.44063 7.50642 3.44063C7.47378 3.44063 7.43843 3.43828 7.40307 3.43594C7.36772 3.43359 7.33236 3.43359 7.29972 3.43359C7.1583 3.43359 7.05767 3.46406 7.1447 3.65391C7.08215 3.85078 7.22901 3.9375 7.40851 3.9375C7.62609 3.9375 7.89262 3.81562 7.91166 3.61406C8.02861 3.46172 8.17819 3.39844 8.33321 3.39844C8.57799 3.39844 8.83636 3.55781 9.00498 3.75469C9.01858 3.77344 9.02946 3.78047 9.0349 3.78047C9.0485 3.78047 9.0349 3.73359 9.02946 3.68672C9.02402 3.64922 9.02402 3.61172 9.04034 3.6C8.79828 3.54141 8.61334 3.28828 8.69493 3.28828C8.72213 3.28828 8.77924 3.31641 8.87171 3.39141H8.88531C9.03762 3.39141 9.15728 3.49453 9.24975 3.59766C9.34494 3.70078 9.41566 3.80391 9.47821 3.80391C9.50269 3.80391 9.52716 3.78516 9.54892 3.74297C9.53804 3.72891 9.51085 3.68906 9.49725 3.64922C9.48093 3.6 9.48093 3.55078 9.55436 3.55078C9.58428 3.55078 9.62508 3.56016 9.68219 3.57891C9.86713 3.53672 9.56524 3.12187 9.81001 3.12187C9.83449 3.12187 9.86441 3.12656 9.90248 3.13594C9.89977 3.20859 9.93784 3.23438 9.9732 3.23438C10.0439 3.23438 10.1146 3.14766 9.94328 3.12187C10.0086 3.06797 10.0466 3.04688 10.0738 3.04688C10.169 3.04688 10.0929 3.31875 10.4219 3.31875C10.5335 3.54609 9.45373 3.33516 9.79914 3.77109C9.87801 3.82031 9.97592 3.82969 10.0711 3.82969C10.101 3.82969 10.1282 3.82969 10.1554 3.82734C10.1826 3.82734 10.2098 3.825 10.2343 3.825C10.4029 3.825 10.5226 3.86016 10.4491 4.16016C10.3594 4.21641 10.2588 4.23516 10.1554 4.23516C10.0629 4.23516 9.97048 4.22109 9.88073 4.20703C9.79098 4.19297 9.70395 4.17891 9.62508 4.17891C9.50269 4.17891 9.40478 4.21406 9.34494 4.33594C9.02674 4.22344 8.6079 4.21875 8.6487 3.87891C8.09388 3.94688 7.51458 3.91172 7.10662 4.20469C7.08215 4.63359 6.22816 4.77187 6.43486 5.25937C6.18736 5.70937 6.73402 6.33984 7.29156 6.33984C7.3106 6.33984 7.33236 6.33984 7.3514 6.3375C7.656 6.33516 7.96333 6.21797 8.23258 6.21797C8.37129 6.21797 8.4964 6.24844 8.60518 6.34219C8.62966 6.33984 8.65142 6.3375 8.67046 6.3375C9.08657 6.3375 8.53719 6.90703 9.0349 7.00312C9.48637 7.40625 8.75749 7.82109 9.11377 8.20781C9.15184 8.51016 9.32591 8.76328 9.32591 9.05859C9.37214 9.06328 9.41566 9.06562 9.46189 9.06562C10.0358 9.06562 10.3948 8.63437 10.732 8.30859C10.6286 7.82109 11.5343 7.725 11.2243 7.17891C11.0801 6.58125 11.9069 6.22734 11.8607 5.62969C11.8688 5.54531 11.8416 5.51953 11.8008 5.51953C11.76 5.51953 11.7002 5.54531 11.6431 5.56875C11.5833 5.59453 11.518 5.61797 11.4663 5.61797C11.3983 5.61797 11.3467 5.57812 11.3412 5.44687C10.9414 5.12578 10.7592 4.68984 10.3866 4.33594C10.8707 4.5375 11.1454 4.99219 11.3684 5.40469C11.3874 5.40938 11.4065 5.41172 11.4282 5.41172C11.8226 5.41172 12.372 4.59844 11.7736 4.40156C11.741 4.47891 11.6975 4.50703 11.6458 4.50703C11.5561 4.50703 11.4527 4.41328 11.3793 4.32187C11.3059 4.22812 11.2678 4.13437 11.3086 4.13437C11.3358 4.13437 11.3956 4.17188 11.499 4.27031C11.6159 4.33359 11.7301 4.35 11.8498 4.35C11.9667 4.35 12.0864 4.33359 12.2115 4.32422C12.3693 4.37813 12.4373 4.55156 12.4862 4.55156C12.4944 4.55156 12.5052 4.54453 12.5134 4.52812C12.6385 4.78594 12.7827 5.24531 12.9132 5.36953C12.8452 4.97578 12.8289 4.55859 12.7119 4.17188ZM11.1943 3.63047C10.887 3.5625 10.7864 3.23437 10.5443 3.04453C10.5416 2.99297 10.6314 3.00234 10.6096 2.91563C10.936 3.00234 10.8299 3.08906 10.8 3.10547C10.9197 3.27656 11.2542 3.39375 11.1943 3.63047ZM6.97064 1.84688C6.67419 1.92188 6.63339 1.83984 6.68507 1.99687C6.70683 2.01094 6.74762 2.01562 6.78842 2.01562C6.93256 2.01797 7.12838 1.94531 6.97064 1.84688ZM11.3249 8.30391C11.7138 8.02031 11.7628 7.68281 11.7818 7.34063C11.6077 7.63359 11.091 7.95703 11.3249 8.30391ZM9.55436 3.73359C9.55164 3.73594 9.55164 3.73594 9.55164 3.73828C9.55436 3.74297 9.55708 3.74297 9.55708 3.74297C9.55708 3.74297 9.55708 3.74063 9.55436 3.73359ZM7.3106 0C3.46493 0 0.348145 2.68594 0.348145 6C0.348145 9.31406 3.46493 12 7.3106 12C11.1563 12 14.2731 9.31406 14.2731 6C14.2731 2.68594 11.1563 0 7.3106 0ZM7.3106 11.5383C3.76138 11.5383 0.883927 9.05859 0.883927 6C0.883927 2.94141 3.76138 0.461719 7.3106 0.461719C10.8598 0.461719 13.7373 2.94141 13.7373 6C13.7373 9.05859 10.8598 11.5383 7.3106 11.5383Z" fill="white"/>
</svg>
