<svg width="74" height="24" viewBox="0 0 74 24" fill="none" xmlns="http://www.w3.org/2000/svg">
<path d="M9.32903 1.12693L1.13259 9.2821C0.77354 9.63892 0.488703 10.0626 0.294366 10.529C0.100028 10.9954 0 11.4953 0 12.0002C0 12.505 0.100028 13.0049 0.294366 13.4713C0.488703 13.9377 0.77354 14.3614 1.13259 14.7182L9.33104 22.8734C9.68975 23.2305 10.1157 23.5139 10.5846 23.7072C11.0534 23.9005 11.556 24 12.0635 24C12.5711 24 13.0736 23.9005 13.5425 23.7072C14.0113 23.5139 14.4373 23.2305 14.796 22.8734L17.5295 20.1553L14.796 17.4373L12.0635 20.1553L3.86407 12.0002L12.0625 3.84498L17.5285 9.2821L12.0625 14.7182L14.795 17.4373L20.261 12.0002C20.6202 11.6433 20.9051 11.2195 21.0996 10.7531C21.294 10.2866 21.3941 9.78658 21.3941 9.2816C21.3941 8.77662 21.294 8.2766 21.0996 7.81012C20.9051 7.34365 20.6202 6.91988 20.261 6.56304L14.7839 1.12693C14.4264 0.769747 14.0014 0.486329 13.5334 0.29294C13.0655 0.0995514 12.5637 0 12.057 0C11.5502 0 11.0485 0.0995514 10.5805 0.29294C10.1126 0.486329 9.6876 0.769747 9.33003 1.12693H9.32903Z" fill="#97C93E"/>
<path d="M24.224 18V5.4H28.886C29.894 5.4 30.728 5.568 31.388 5.904C32.048 6.24 32.54 6.702 32.864 7.29C33.188 7.878 33.35 8.538 33.35 9.27C33.35 9.966 33.194 10.608 32.882 11.196C32.57 11.772 32.084 12.24 31.424 12.6C30.764 12.948 29.918 13.122 28.886 13.122H26.528V18H24.224ZM26.528 11.25H28.742C29.546 11.25 30.122 11.076 30.47 10.728C30.83 10.368 31.01 9.882 31.01 9.27C31.01 8.646 30.83 8.16 30.47 7.812C30.122 7.452 29.546 7.272 28.742 7.272H26.528V11.25ZM35.1036 18V5.04H37.4076V18H35.1036ZM42.8398 18.216C42.0718 18.216 41.4418 18.096 40.9498 17.856C40.4578 17.604 40.0918 17.274 39.8518 16.866C39.6118 16.458 39.4918 16.008 39.4918 15.516C39.4918 14.688 39.8158 14.016 40.4638 13.5C41.1118 12.984 42.0838 12.726 43.3798 12.726H45.6478V12.51C45.6478 11.898 45.4738 11.448 45.1258 11.16C44.7778 10.872 44.3458 10.728 43.8298 10.728C43.3618 10.728 42.9538 10.842 42.6058 11.07C42.2578 11.286 42.0418 11.61 41.9578 12.042H39.7078C39.7678 11.394 39.9838 10.83 40.3558 10.35C40.7398 9.87 41.2318 9.504 41.8318 9.252C42.4318 8.988 43.1038 8.856 43.8478 8.856C45.1198 8.856 46.1218 9.174 46.8538 9.81C47.5858 10.446 47.9518 11.346 47.9518 12.51V18H45.9898L45.7738 16.56C45.5098 17.04 45.1378 17.436 44.6578 17.748C44.1898 18.06 43.5838 18.216 42.8398 18.216ZM43.3618 16.416C44.0218 16.416 44.5318 16.2 44.8918 15.768C45.2638 15.336 45.4978 14.802 45.5938 14.166H43.6318C43.0198 14.166 42.5818 14.28 42.3178 14.508C42.0538 14.724 41.9218 14.994 41.9218 15.318C41.9218 15.666 42.0538 15.936 42.3178 16.128C42.5818 16.32 42.9298 16.416 43.3618 16.416ZM54.0054 18C53.0694 18 52.3194 17.772 51.7554 17.316C51.1914 16.86 50.9094 16.05 50.9094 14.886V10.998H49.3794V9.072H50.9094L51.1794 6.678H53.2134V9.072H55.6254V10.998H53.2134V14.904C53.2134 15.336 53.3034 15.636 53.4834 15.804C53.6754 15.96 53.9994 16.038 54.4554 16.038H55.5714V18H54.0054ZM57.0276 18V16.146L61.5816 10.98H57.0816V9.072H64.2096V10.926L59.5836 16.092H64.2996V18H57.0276ZM67.4589 7.686C67.0389 7.686 66.6909 7.56 66.4149 7.308C66.1509 7.056 66.0189 6.738 66.0189 6.354C66.0189 5.97 66.1509 5.658 66.4149 5.418C66.6909 5.166 67.0389 5.04 67.4589 5.04C67.8789 5.04 68.2209 5.166 68.4849 5.418C68.7609 5.658 68.8989 5.97 68.8989 6.354C68.8989 6.738 68.7609 7.056 68.4849 7.308C68.2209 7.56 67.8789 7.686 67.4589 7.686ZM66.3069 18V9.072H68.6109V18H66.3069Z" fill="black"/>
</svg>
