<svg width="68" height="24" viewBox="0 0 68 24" fill="none" xmlns="http://www.w3.org/2000/svg">
<path d="M9.63994 1.1269L1.48694 9.2819C1.12979 9.63871 0.846465 10.0624 0.653157 10.5288C0.459849 10.9952 0.360352 11.4951 0.360352 11.9999C0.360352 12.5047 0.459849 13.0046 0.653157 13.471C0.846465 13.9374 1.12979 14.3611 1.48694 14.7179L9.64194 22.8729C9.99875 23.2301 10.4225 23.5134 10.8888 23.7067C11.3552 23.9 11.8551 23.9995 12.3599 23.9995C12.8648 23.9995 13.3647 23.9 13.8311 23.7067C14.2974 23.5134 14.7211 23.2301 15.0779 22.8729L17.7969 20.1549L15.0779 17.4369L12.3599 20.1549L4.20394 11.9999L12.3589 3.8449L17.7959 9.2819L12.3589 14.7179L15.0769 17.4369L20.5139 11.9999C20.8712 11.6431 21.1547 11.2193 21.3481 10.7528C21.5415 10.2864 21.641 9.78637 21.641 9.2814C21.641 8.77644 21.5415 8.27642 21.3481 7.80996C21.1547 7.3435 20.8712 6.91973 20.5139 6.5629L15.0659 1.1269C14.7103 0.76973 14.2876 0.486318 13.8221 0.292934C13.3566 0.0995493 12.8575 0 12.3534 0C11.8494 0 11.3503 0.0995493 10.8848 0.292934C10.4193 0.486318 9.99661 0.76973 9.64094 1.1269H9.63994Z" fill="#97C93E"/>
<path d="M29.2051 11.9814H25.7861V10.6016H29.2051C29.8672 10.6016 30.4033 10.4961 30.8135 10.2852C31.2236 10.0742 31.5225 9.78125 31.71 9.40625C31.9033 9.03125 32 8.60352 32 8.12305C32 7.68359 31.9033 7.27051 31.71 6.88379C31.5225 6.49707 31.2236 6.18652 30.8135 5.95215C30.4033 5.71191 29.8672 5.5918 29.2051 5.5918H26.1816V17H24.4854V4.20312H29.2051C30.1719 4.20312 30.9893 4.37012 31.6572 4.7041C32.3252 5.03809 32.832 5.50098 33.1777 6.09277C33.5234 6.67871 33.6963 7.34961 33.6963 8.10547C33.6963 8.92578 33.5234 9.62598 33.1777 10.2061C32.832 10.7861 32.3252 11.2285 31.6572 11.5332C30.9893 11.832 30.1719 11.9814 29.2051 11.9814ZM37.3613 3.5V17H35.7266V3.5H37.3613ZM45.5791 15.374V10.4785C45.5791 10.1035 45.5029 9.77832 45.3506 9.50293C45.2041 9.22168 44.9814 9.00488 44.6826 8.85254C44.3838 8.7002 44.0146 8.62402 43.5752 8.62402C43.165 8.62402 42.8047 8.69434 42.4941 8.83496C42.1895 8.97559 41.9492 9.16016 41.7734 9.38867C41.6035 9.61719 41.5186 9.86328 41.5186 10.127H39.8926C39.8926 9.78711 39.9805 9.4502 40.1562 9.11621C40.332 8.78223 40.584 8.48047 40.9121 8.21094C41.2461 7.93555 41.6445 7.71875 42.1074 7.56055C42.5762 7.39648 43.0977 7.31445 43.6719 7.31445C44.3633 7.31445 44.9727 7.43164 45.5 7.66602C46.0332 7.90039 46.4492 8.25488 46.748 8.72949C47.0527 9.19824 47.2051 9.78711 47.2051 10.4961V14.9258C47.2051 15.2422 47.2314 15.5791 47.2842 15.9365C47.3428 16.2939 47.4277 16.6016 47.5391 16.8594V17H45.8428C45.7607 16.8125 45.6963 16.5635 45.6494 16.2529C45.6025 15.9365 45.5791 15.6436 45.5791 15.374ZM45.8604 11.2344L45.8779 12.377H44.2344C43.7715 12.377 43.3584 12.415 42.9951 12.4912C42.6318 12.5615 42.3271 12.6699 42.0811 12.8164C41.835 12.9629 41.6475 13.1475 41.5186 13.3701C41.3896 13.5869 41.3252 13.8418 41.3252 14.1348C41.3252 14.4336 41.3926 14.7061 41.5273 14.9521C41.6621 15.1982 41.8643 15.3945 42.1338 15.541C42.4092 15.6816 42.7461 15.752 43.1445 15.752C43.6426 15.752 44.082 15.6465 44.4629 15.4355C44.8438 15.2246 45.1455 14.9668 45.3682 14.6621C45.5967 14.3574 45.7197 14.0615 45.7373 13.7744L46.4316 14.5566C46.3906 14.8027 46.2793 15.0752 46.0977 15.374C45.916 15.6729 45.6729 15.96 45.3682 16.2354C45.0693 16.5049 44.7119 16.7305 44.2959 16.9121C43.8857 17.0879 43.4229 17.1758 42.9072 17.1758C42.2627 17.1758 41.6973 17.0498 41.2109 16.7979C40.7305 16.5459 40.3555 16.209 40.0859 15.7871C39.8223 15.3594 39.6904 14.8818 39.6904 14.3545C39.6904 13.8447 39.79 13.3965 39.9893 13.0098C40.1885 12.6172 40.4756 12.292 40.8506 12.0342C41.2256 11.7705 41.6768 11.5713 42.2041 11.4365C42.7314 11.3018 43.3203 11.2344 43.9707 11.2344H45.8604ZM53.7441 7.49023V8.73828H48.6025V7.49023H53.7441ZM50.3428 5.17871H51.9688V14.6445C51.9688 14.9668 52.0186 15.21 52.1182 15.374C52.2178 15.5381 52.3467 15.6465 52.5049 15.6992C52.6631 15.752 52.833 15.7783 53.0146 15.7783C53.1494 15.7783 53.29 15.7666 53.4365 15.7432C53.5889 15.7139 53.7031 15.6904 53.7793 15.6729L53.7881 17C53.6592 17.041 53.4893 17.0791 53.2783 17.1143C53.0732 17.1553 52.8242 17.1758 52.5312 17.1758C52.1328 17.1758 51.7666 17.0967 51.4326 16.9385C51.0986 16.7803 50.832 16.5166 50.6328 16.1475C50.4395 15.7725 50.3428 15.2686 50.3428 14.6357V5.17871ZM62.7354 15.6641V17H55.8184V15.6641H62.7354ZM62.4805 8.6416L56.1875 17H55.1943V15.8047L61.4434 7.49023H62.4805V8.6416ZM61.7598 7.49023V8.83496H55.2646V7.49023H61.7598ZM66.3477 7.49023V17H64.7129V7.49023H66.3477ZM64.5898 4.96777C64.5898 4.7041 64.6689 4.48145 64.8271 4.2998C64.9912 4.11816 65.2314 4.02734 65.5479 4.02734C65.8584 4.02734 66.0957 4.11816 66.2598 4.2998C66.4297 4.48145 66.5146 4.7041 66.5146 4.96777C66.5146 5.21973 66.4297 5.43652 66.2598 5.61816C66.0957 5.79395 65.8584 5.88184 65.5479 5.88184C65.2314 5.88184 64.9912 5.79395 64.8271 5.61816C64.6689 5.43652 64.5898 5.21973 64.5898 4.96777Z" fill="black"/>
</svg>
