<svg width="170" height="50" viewBox="0 0 170 50" fill="none" xmlns="http://www.w3.org/2000/svg">
<g clip-path="url(#clip0_1_583)">
<path d="M48.3788 0H0V29.465C0 41.735 10.4118 50 24.1412 50C27.8443 50 31.3093 49.395 34.3999 48.275V48.28L40.1673 46.155L48.3788 49.46V0ZM24.1582 39.095L13.4571 34.79V9.49H24.1582V39.095ZM38.0236 29.875V34.895L27.5778 39.1V34.075L38.0236 29.875Z" fill="#AE2573"/>
<path d="M100.756 19.525C99.4853 17.31 97.8124 13.495 97.4664 9.52502H94.8294C94.8294 9.52502 95.4533 16.675 99.3889 21.445H102.128C106.058 16.675 106.682 9.52502 106.682 9.52502H104.05C103.704 13.495 102.032 17.315 100.756 19.525ZM154.539 4.75502H151.834V9.52002H150.189V11.34H151.834V18.025C151.834 19.855 152.911 21.44 155.594 21.44H157.034V19.32H156.059C154.924 19.32 154.539 18.83 154.539 17.88V11.34H157.034V9.52002H154.539V4.75502ZM68.4879 15.715C68.4879 17.93 66.9398 19.36 64.541 19.36C62.1422 19.36 60.594 17.93 60.594 15.715V4.76502H57.8322V15.835C57.8322 17.465 58.5128 18.93 59.7547 19.965C60.9739 20.98 62.6696 21.54 64.541 21.535C66.0664 21.535 67.4785 21.165 68.607 20.475L71.244 21.535V4.76502H68.4879V15.715ZM84.3892 10.53C83.601 9.86002 82.2797 9.34502 80.3402 9.34502C79.0642 9.34502 77.8904 9.77502 77.1531 10.235L74.9415 9.34502V21.44H77.6465V14.22C77.6465 12.375 78.8317 11.58 80.3402 11.58C81.8487 11.58 83.0339 12.375 83.0396 14.22V21.44H85.7446V13.87C85.7446 12.54 85.427 11.42 84.3892 10.53ZM124.868 14.23C124.868 12.38 126.054 11.59 127.562 11.59C128.09 11.59 128.577 11.685 128.991 11.89L130.426 9.84002C129.683 9.54502 128.736 9.35502 127.562 9.35502C126.286 9.35502 125.112 9.78502 124.369 10.245L122.163 9.35502V21.45H124.868V14.23ZM91.8352 9.52502H89.1358V21.445H91.8352V9.52502ZM91.8352 4.75502H89.1358V7.13502H91.8352V4.75502ZM144.518 21.44H147.218V9.52002H144.518V21.44ZM144.518 7.14002H147.218V4.75502H144.518V7.14002ZM102.718 44.635H105.417V32.715H102.718V44.635ZM102.718 30.325H105.417V27.94H102.718V30.325ZM111.122 14.5C111.133 14.15 111.156 13.865 111.207 13.61C111.258 13.36 111.338 13.14 111.474 12.865C111.871 12.03 112.903 11.515 114.173 11.515C115.08 11.515 116.277 11.66 116.821 12.355C116.94 12.51 117.128 12.92 116.963 13.38C116.765 13.93 116.141 14.425 115.103 14.76C113.719 15.21 112.143 15.435 111.133 15.53H111.122V14.5ZM114.513 21.615C115.67 21.615 116.589 21.465 117.405 21.145C118.131 20.855 118.795 20.425 119.555 19.755L117.95 18.415C117.468 18.845 116.997 19.125 116.47 19.295C115.948 19.47 115.364 19.545 114.564 19.545C112.897 19.545 111.746 18.805 111.309 17.455V17.45H111.315C112.665 17.29 115.143 17.1 117.218 16.11C118.228 15.625 118.971 15.065 119.311 14.25C119.577 13.615 119.691 12.82 119.464 12.1C119.158 11.12 118.636 10.545 117.831 10.07C116.918 9.53002 115.653 9.35002 114.167 9.35002C113.266 9.35002 112.443 9.49002 111.735 9.76002C111.037 10.025 110.425 10.435 109.943 10.955C109.455 11.48 109.086 12.125 108.837 12.875C108.587 13.635 108.457 14.505 108.457 15.47C108.457 17.61 109.052 19.22 110.22 20.255C111.241 21.16 112.687 21.615 114.513 21.615ZM74.278 38.725H74.2723V37.695C74.2836 37.345 74.3063 37.06 74.3517 36.81C74.4027 36.56 74.4821 36.34 74.6182 36.06C75.0152 35.225 76.0473 34.71 77.3176 34.71C78.2249 34.71 79.4215 34.855 79.9659 35.555C80.085 35.71 80.2721 36.12 80.1077 36.575C79.9092 37.13 79.2854 37.62 78.2533 37.955C76.8696 38.405 75.2931 38.63 74.278 38.725ZM80.3629 39.305C81.3723 38.82 82.1152 38.26 82.4555 37.445C82.722 36.81 82.8354 36.015 82.6086 35.295C82.3023 34.315 81.7806 33.74 80.9753 33.265C80.0567 32.725 78.7977 32.545 77.3119 32.545C76.4102 32.545 75.5879 32.685 74.8791 32.955C74.1816 33.22 73.5691 33.63 73.0871 34.15C72.5994 34.67 72.2308 35.32 71.9812 36.075C71.7317 36.835 71.6013 37.705 71.6013 38.665C71.6013 40.805 72.1911 42.415 73.3649 43.45C74.3857 44.355 75.8318 44.81 77.6578 44.81C78.8147 44.81 79.7334 44.66 80.55 44.34C81.2759 44.055 81.9451 43.625 82.6993 42.95L81.0944 41.61C80.6124 42.04 80.1417 42.32 79.6143 42.495C79.0926 42.665 78.5085 42.745 77.7089 42.74C76.0416 42.74 74.8904 42 74.4594 40.655L74.4538 40.645H74.4651C75.8148 40.485 78.2873 40.295 80.3629 39.305ZM126.388 38.725H126.383V37.695C126.394 37.345 126.417 37.06 126.462 36.81C126.513 36.56 126.592 36.34 126.728 36.06C127.125 35.225 128.158 34.71 129.428 34.71C130.335 34.71 131.532 34.855 132.076 35.555C132.195 35.71 132.382 36.12 132.218 36.575C132.019 37.13 131.396 37.62 130.358 37.955C128.974 38.405 127.398 38.63 126.388 38.725ZM132.473 39.305C133.483 38.82 134.225 38.26 134.566 37.445C134.832 36.81 134.946 36.015 134.719 35.295C134.413 34.315 133.891 33.745 133.086 33.265C132.167 32.725 130.908 32.545 129.422 32.545C128.521 32.545 127.704 32.685 126.989 32.955C126.292 33.22 125.679 33.63 125.197 34.15C124.71 34.675 124.341 35.32 124.091 36.075C123.842 36.835 123.712 37.705 123.712 38.665C123.712 40.805 124.301 42.415 125.475 43.45C126.496 44.355 127.942 44.81 129.768 44.81C130.925 44.81 131.844 44.66 132.66 44.34C133.392 44.05 134.05 43.625 134.81 42.95L133.205 41.61C132.723 42.04 132.252 42.32 131.725 42.495C131.203 42.665 130.619 42.745 129.819 42.74C128.152 42.74 126.995 42 126.564 40.655V40.645H126.575C127.925 40.485 130.398 40.295 132.473 39.305ZM161.542 15.525V14.5C161.554 14.15 161.576 13.865 161.622 13.61C161.673 13.36 161.752 13.14 161.888 12.86C162.285 12.025 163.317 11.51 164.588 11.51C165.495 11.51 166.692 11.655 167.236 12.355C167.355 12.51 167.542 12.92 167.378 13.375C167.179 13.93 166.555 14.42 165.518 14.76C164.134 15.21 162.557 15.435 161.548 15.525H161.542ZM166.884 19.295C166.363 19.465 165.779 19.545 164.979 19.545C163.312 19.545 162.155 18.805 161.724 17.455V17.445H161.735C163.085 17.285 165.557 17.095 167.633 16.105C168.642 15.62 169.385 15.06 169.726 14.25C169.992 13.615 170.105 12.82 169.879 12.095C169.572 11.115 169.051 10.545 168.245 10.07C167.332 9.53002 166.068 9.34502 164.582 9.34502C163.68 9.34502 162.858 9.48502 162.149 9.75502C161.452 10.02 160.839 10.43 160.357 10.955C159.869 11.475 159.501 12.125 159.251 12.875C159.002 13.635 158.871 14.505 158.871 15.465C158.871 17.605 159.461 19.215 160.635 20.25C161.656 21.155 163.102 21.61 164.928 21.615C166.085 21.615 167.003 21.465 167.82 21.14C168.546 20.855 169.215 20.425 169.969 19.75L168.365 18.41C167.882 18.84 167.412 19.12 166.884 19.295ZM137.883 14.43L135.762 14.265C134.333 14.145 133.908 13.605 133.908 12.89C133.908 11.99 134.73 11.355 136.346 11.355C137.617 11.355 138.808 11.59 139.658 12.23L141.365 10.695C140.118 9.72502 138.394 9.35002 136.38 9.35002C133.573 9.35002 131.322 10.675 131.316 13.01C131.316 15.115 132.774 16.13 135.292 16.32L137.441 16.485C138.74 16.58 139.244 17.1 139.244 17.905C139.244 19.035 137.946 19.555 136.301 19.56C134.974 19.56 133.522 19.3 132.428 18.305L130.658 19.89C132.246 21.285 134.101 21.615 136.301 21.615C139.505 21.615 141.893 20.315 141.893 17.81C141.893 15.685 140.407 14.62 137.889 14.43H137.883ZM66.3387 40.865C66.333 41.715 65.4313 42.64 63.8094 42.64C61.6091 42.64 60.3898 41.355 60.3898 39.32V37.665C60.4182 36.94 60.4692 36.59 60.7358 36.05C61.1611 35.165 62.2669 34.72 63.4238 34.725C65.0797 34.725 66.3387 35.195 66.3387 36.43C66.3443 37.54 66.3443 39.755 66.3387 40.865ZM66.3387 33.045C65.5674 32.745 64.5977 32.575 63.4124 32.57C59.5165 32.57 57.7132 34.79 57.7188 38.62C57.7188 43.13 60.3955 44.695 63.7584 44.695C65.0117 44.695 65.9644 44.32 66.7867 43.79L69.0437 44.695V27.945H66.3387V33.045ZM93.8711 41.22V27.945H91.166V41.355C91.166 43.11 92.2775 44.63 94.8521 44.63H100.614V42.6H95.3285C94.2397 42.6 93.8711 42.13 93.8711 41.215V41.22ZM112.052 41.075V27.945H109.353V41.22C109.353 43.05 110.43 44.635 113.113 44.635H114.547V42.515H113.578C112.443 42.515 112.058 42.025 112.052 41.075ZM119.697 41.075V27.945H116.997V41.22C116.997 43.05 118.075 44.635 120.757 44.635H122.192V42.515H121.222C120.088 42.515 119.702 42.025 119.697 41.075ZM167.695 4.14502L161.525 6.62502V8.71002L167.695 6.22502V4.14502Z" fill="black"/>
</g>
<defs>
<clipPath id="clip0_1_583">
<rect width="170" height="50" fill="white"/>
</clipPath>
</defs>
</svg>
